<svg width="147" height="147" viewBox="0 0 147 147" fill="none" xmlns="http://www.w3.org/2000/svg">
<path d="M134.47 138.968H12.5185C10.0185 138.968 7.94531 136.894 7.94531 134.394C7.94531 131.894 10.0185 129.821 12.5185 129.821H134.47C136.97 129.821 139.043 131.894 139.043 134.394C139.043 136.894 136.97 138.968 134.47 138.968Z" fill="#878787"/>
<path opacity="0.4" d="M128.373 61.1018V134.395H18.3125L18.6174 61.0407C18.6174 57.3212 20.3247 53.785 23.3125 51.4679L65.9954 18.2971C70.3857 14.8215 76.6052 14.8215 80.9954 18.2971L89.1662 24.6385L116.178 45.6141L123.678 51.4679C126.666 53.785 128.373 57.3213 128.373 61.1018Z" fill="#878787"/>
<path d="M79.5915 103.907H67.3963C62.3354 103.907 58.25 107.993 58.25 113.054V134.395H88.7378V113.054C88.7378 107.993 84.6524 103.907 79.5915 103.907Z" fill="#878787"/>
<path d="M58.2536 84.0895H46.0585C42.7048 84.0895 39.9609 81.3456 39.9609 77.992V68.8456C39.9609 65.4919 42.7048 62.748 46.0585 62.748H58.2536C61.6073 62.748 64.3512 65.4919 64.3512 68.8456V77.992C64.3512 81.3456 61.6073 84.0895 58.2536 84.0895Z" fill="#878787"/>
<path d="M100.941 84.0895H88.746C85.3923 84.0895 82.6484 81.3456 82.6484 77.992V68.8456C82.6484 65.4919 85.3923 62.748 88.746 62.748H100.941C104.295 62.748 107.039 65.4919 107.039 68.8456V77.992C107.039 81.3456 104.295 84.0895 100.941 84.0895Z" fill="#878787"/>
<path d="M116.184 45.6133L89.1719 24.6377H109.965C113.318 24.6377 116.062 27.3206 116.062 30.6742L116.184 45.6133Z" fill="#878787"/>
</svg>
