<svg width="60" height="61" viewBox="0 0 60 61" fill="none" xmlns="http://www.w3.org/2000/svg">
<path fill-rule="evenodd" clip-rule="evenodd" d="M30 60.5C46.569 60.5 60 47.069 60 30.5C60 13.931 46.569 0.5 30 0.5C13.431 0.5 0 13.931 0 30.5C0 47.069 13.431 60.5 30 60.5ZM39 30.5C40.656 30.5 42 28.484 42 26C42 23.516 40.656 21.5 39 21.5C37.344 21.5 36 23.516 36 26C36 28.484 37.344 30.5 39 30.5ZM24 26C24 28.484 22.656 30.5 21 30.5C19.344 30.5 18 28.484 18 26C18 23.516 19.344 21.5 21 21.5C22.656 21.5 24 23.516 24 26ZM19.191 46.841C19.3672 47.0785 19.5884 47.279 19.8422 47.4309C20.0959 47.5829 20.377 47.6833 20.6696 47.7265C20.9622 47.7697 21.2604 47.7548 21.5472 47.6826C21.834 47.6105 22.1037 47.4825 22.341 47.306C24.5517 45.6507 27.2382 44.7541 30 44.75C32.7618 44.7541 35.4483 45.6507 37.659 47.306C37.8956 47.4901 38.1665 47.6251 38.456 47.703C38.7454 47.7809 39.0475 47.8002 39.3445 47.7597C39.6415 47.7192 39.9275 47.6198 40.1855 47.4673C40.4436 47.3148 40.6686 47.1123 40.8473 46.8716C41.026 46.631 41.1548 46.357 41.2261 46.0659C41.2975 45.7748 41.3099 45.4723 41.2628 45.1763C41.2156 44.8803 41.1098 44.5967 40.9515 44.3421C40.7932 44.0876 40.5856 43.8672 40.341 43.694C37.3548 41.4624 33.7279 40.2545 30 40.25C26.2721 40.2545 22.6452 41.4624 19.659 43.694C19.1797 44.0493 18.8611 44.5804 18.7733 45.1706C18.6856 45.7607 18.8358 46.3616 19.191 46.841Z" fill="#E52926"/>
</svg>
