<svg width="24" height="25" viewBox="0 0 24 25" fill="none" xmlns="http://www.w3.org/2000/svg">
<path opacity="0.4" d="M12 2.35474C9.38 2.35474 7.25 4.48474 7.25 7.10474C7.25 9.67474 9.26 11.7547 11.88 11.8447C11.96 11.8347 12.04 11.8347 12.1 11.8447C12.12 11.8447 12.13 11.8447 12.15 11.8447C12.16 11.8447 12.16 11.8447 12.17 11.8447C14.73 11.7547 16.74 9.67474 16.75 7.10474C16.75 4.48474 14.62 2.35474 12 2.35474Z" fill="#EAB308"/>
<path d="M17.08 14.5046C14.29 12.6446 9.73996 12.6446 6.92996 14.5046C5.65996 15.3546 4.95996 16.5046 4.95996 17.7346C4.95996 18.9646 5.65996 20.1046 6.91996 20.9446C8.31996 21.8846 10.16 22.3546 12 22.3546C13.84 22.3546 15.68 21.8846 17.08 20.9446C18.34 20.0946 19.04 18.9546 19.04 17.7146C19.03 16.4846 18.34 15.3446 17.08 14.5046Z" fill="#EAB308"/>
</svg>
