<svg width="24" height="25" viewBox="0 0 24 25" fill="none" xmlns="http://www.w3.org/2000/svg">
<path d="M12 22.1797C17.5228 22.1797 22 17.7025 22 12.1797C22 6.65684 17.5228 2.17969 12 2.17969C6.47715 2.17969 2 6.65684 2 12.1797C2 17.7025 6.47715 22.1797 12 22.1797Z" fill="#E52926"/>
<path d="M12 13.9297C12.41 13.9297 12.75 13.5897 12.75 13.1797V8.17969C12.75 7.76969 12.41 7.42969 12 7.42969C11.59 7.42969 11.25 7.76969 11.25 8.17969V13.1797C11.25 13.5897 11.59 13.9297 12 13.9297Z" fill="white"/>
<path d="M12.92 15.7996C12.87 15.6796 12.8 15.5696 12.71 15.4696C12.61 15.3796 12.5 15.3096 12.38 15.2596C12.14 15.1596 11.86 15.1596 11.62 15.2596C11.5 15.3096 11.39 15.3796 11.29 15.4696C11.2 15.5696 11.13 15.6796 11.08 15.7996C11.03 15.9196 11 16.0496 11 16.1796C11 16.3096 11.03 16.4396 11.08 16.5596C11.13 16.6896 11.2 16.7896 11.29 16.8896C11.39 16.9796 11.5 17.0496 11.62 17.0996C11.74 17.1496 11.87 17.1796 12 17.1796C12.13 17.1796 12.26 17.1496 12.38 17.0996C12.5 17.0496 12.61 16.9796 12.71 16.8896C12.8 16.7896 12.87 16.6896 12.92 16.5596C12.97 16.4396 13 16.3096 13 16.1796C13 16.0496 12.97 15.9196 12.92 15.7996Z" fill="white"/>
</svg>
