<svg width="24" height="25" viewBox="0 0 24 25" fill="none" xmlns="http://www.w3.org/2000/svg">
<path d="M11.25 14.1047H11.75V13.6047V11.3547C11.75 11.2884 11.7763 11.2248 11.8232 11.178C11.8701 11.1311 11.9337 11.1047 12 11.1047C12.0663 11.1047 12.1299 11.1311 12.1768 11.178C12.2237 11.2248 12.25 11.2884 12.25 11.3547V13.6047V14.1047H12.75H15C15.0663 14.1047 15.1299 14.1311 15.1768 14.178C15.2237 14.2248 15.25 14.2884 15.25 14.3547C15.25 14.421 15.2237 14.4846 15.1768 14.5315C15.1299 14.5784 15.0663 14.6047 15 14.6047H12.75H12.25V15.1047V17.3547C12.25 17.421 12.2237 17.4846 12.1768 17.5315C12.1299 17.5784 12.0663 17.6047 12 17.6047C11.9337 17.6047 11.8701 17.5784 11.8232 17.5315C11.7763 17.4846 11.75 17.421 11.75 17.3547V15.1047V14.6047H11.25H9C8.9337 14.6047 8.87011 14.5784 8.82322 14.5315C8.77634 14.4846 8.75 14.421 8.75 14.3547C8.75 14.2884 8.77634 14.2248 8.82322 14.178C8.87011 14.1311 8.9337 14.1047 9 14.1047H11.25Z" fill="#E52926" stroke="#E52926"/>
<path fill-rule="evenodd" clip-rule="evenodd" d="M12 1.60474C11.292 1.60474 10.649 1.80774 9.95 2.14674C9.276 2.47474 8.496 2.95874 7.523 3.56274L5.456 4.84574C4.536 5.41774 3.797 5.87574 3.229 6.31074C2.64 6.76074 2.188 7.22074 1.861 7.81774C1.535 8.41274 1.389 9.04674 1.318 9.79574C1.25 10.5207 1.25 11.4087 1.25 12.5217V14.1347C1.25 16.0387 1.25 17.5417 1.403 18.7167C1.559 19.9217 1.889 20.8947 2.633 21.6637C3.38 22.4367 4.33 22.7827 5.508 22.9457C6.648 23.1047 8.106 23.1047 9.942 23.1047H14.058C15.894 23.1047 17.352 23.1047 18.492 22.9457C19.669 22.7827 20.62 22.4367 21.368 21.6637C22.111 20.8947 22.441 19.9217 22.598 18.7167C22.75 17.5417 22.75 16.0387 22.75 14.1347V12.5217C22.75 11.4087 22.75 10.5217 22.682 9.79574C22.612 9.04574 22.465 8.41274 22.139 7.81774C21.812 7.22074 21.359 6.76174 20.771 6.31074C20.203 5.87474 19.465 5.41774 18.544 4.84574L16.477 3.56274C15.504 2.95874 14.724 2.47474 14.049 2.14674C13.352 1.80674 12.709 1.60474 12 1.60474ZM8.28 4.85874C9.295 4.22874 10.01 3.78674 10.607 3.49574C11.188 3.21274 11.6 3.10474 12 3.10474C12.4 3.10474 12.812 3.21274 13.393 3.49574C13.991 3.78574 14.705 4.22874 15.72 4.85874L17.72 6.09974C18.681 6.69674 19.356 7.11574 19.86 7.50174C20.349 7.87674 20.63 8.18574 20.823 8.53774C21.016 8.89074 21.129 9.30374 21.188 9.93574C21.249 10.5837 21.25 11.4007 21.25 12.5587V14.0797C21.25 16.0497 21.248 17.4557 21.11 18.5227C20.974 19.5707 20.717 20.1787 20.29 20.6217C19.865 21.0607 19.287 21.3217 18.286 21.4607C17.26 21.6027 15.907 21.6047 14 21.6047H10C8.092 21.6047 6.74 21.6027 5.714 21.4607C4.713 21.3207 4.135 21.0607 3.711 20.6207C3.283 20.1787 3.026 19.5707 2.891 18.5227C2.751 17.4557 2.75 16.0507 2.75 14.0797V12.5587C2.75 11.4007 2.75 10.5837 2.812 9.93574C2.871 9.30374 2.984 8.89074 3.177 8.53774C3.37 8.18574 3.651 7.87674 4.141 7.50174C4.644 7.11574 5.319 6.69674 6.28 6.09974L8.28 4.85874Z" fill="#E52926"/>
</svg>
