<svg width="24" height="25" viewBox="0 0 24 25" fill="none" xmlns="http://www.w3.org/2000/svg">
<path d="M3.002 13.1108C2.61966 13.3308 2.32082 13.6712 2.152 14.0787C2 14.4457 2 14.9118 2 15.8438C2 16.7757 2 17.2417 2.152 17.6087C2.25251 17.8516 2.3999 18.0722 2.58572 18.258C2.77155 18.4439 2.99218 18.5912 3.235 18.6917C3.487 18.7957 3.785 18.8288 4.25 18.8388V20.8438C4.25 21.0427 4.32902 21.2334 4.46967 21.3741C4.61032 21.5147 4.80109 21.5938 5 21.5938C5.19891 21.5938 5.38968 21.5147 5.53033 21.3741C5.67098 21.2334 5.75 21.0427 5.75 20.8438V18.8438H18.25V20.8438C18.25 21.0427 18.329 21.2334 18.4697 21.3741C18.6103 21.5147 18.8011 21.5938 19 21.5938C19.1989 21.5938 19.3897 21.5147 19.5303 21.3741C19.671 21.2334 19.75 21.0427 19.75 20.8438V18.8388C20.214 18.8288 20.513 18.7957 20.765 18.6917C21.0078 18.5912 21.2284 18.4439 21.4143 18.258C21.6001 18.0722 21.7475 17.8516 21.848 17.6087C22 17.2417 22 16.7757 22 15.8438C22 14.9118 22 14.4457 21.848 14.0787C21.6792 13.6712 21.3803 13.3308 20.998 13.1108L19.25 12.8438H4.75L3.002 13.1108Z" fill="#EAB308"/>
<path opacity="0.5" d="M10.998 4.84375H12.998C16.768 4.84375 18.654 4.84375 19.826 6.01575C20.849 7.03775 20.979 8.60375 20.996 11.4928V13.1097L19.25 12.8438H4.75L3.002 13.1108H3V11.4937C3.017 8.60475 3.147 7.03875 4.17 6.01675C5.34 4.84375 7.225 4.84375 10.997 4.84375" fill="#EAB308"/>
<path d="M19 11.3438C19 10.1578 18.998 9.36075 18.919 8.76575C18.843 8.19775 18.713 7.95475 18.554 7.79475C18.396 7.63475 18.155 7.50175 17.594 7.42475C17.005 7.34575 16.217 7.34375 15.044 7.34375H12.913V11.3438H19ZM11.087 11.3438V7.34375H8.957C7.783 7.34375 6.995 7.34575 6.407 7.42575C5.845 7.50175 5.604 7.63375 5.446 7.79475C5.287 7.95475 5.156 8.19775 5.081 8.76575C5.001 9.36075 5 10.1578 5 11.3438H11.087Z" fill="#EAB308"/>
</svg>
