<svg width="33" height="32" viewBox="0 0 33 32" fill="none" xmlns="http://www.w3.org/2000/svg">
<path opacity="0.4" d="M25.1291 22.4399L25.6491 26.6532C25.7824 27.7598 24.5957 28.5331 23.6491 27.9598L18.0624 24.6398C17.4491 24.6398 16.8491 24.5999 16.2624 24.5199C17.2491 23.3599 17.8357 21.8931 17.8357 20.3065C17.8357 16.5198 14.5557 13.4532 10.5024 13.4532C8.95573 13.4532 7.52907 13.8932 6.34241 14.6665C6.30241 14.3332 6.28906 13.9998 6.28906 13.6532C6.28906 7.58649 11.5557 2.6665 18.0624 2.6665C24.5691 2.6665 29.8357 7.58649 29.8357 13.6532C29.8357 17.2532 27.9824 20.4399 25.1291 22.4399Z" fill="#E52926"/>
<path d="M17.8307 20.3064C17.8307 21.8931 17.2441 23.3598 16.2574 24.5198C14.9374 26.1198 12.8441 27.1464 10.4974 27.1464L7.0174 29.2131C6.43073 29.5731 5.68406 29.0797 5.76406 28.3997L6.09739 25.7731C4.31073 24.5331 3.16406 22.5464 3.16406 20.3064C3.16406 17.9597 4.4174 15.8931 6.3374 14.6664C7.52407 13.8931 8.95073 13.4531 10.4974 13.4531C14.5507 13.4531 17.8307 16.5197 17.8307 20.3064Z" fill="#E52926"/>
</svg>
