<svg width="24" height="25" viewBox="0 0 24 25" fill="none" xmlns="http://www.w3.org/2000/svg">
<path d="M12.0009 13.9825C10.1462 13.9825 8.63086 12.4755 8.63086 10.6125C8.63086 8.75117 10.1445 7.2525 12.0009 7.2525C13.8556 7.2525 15.3709 8.75949 15.3709 10.6225C15.3709 12.4838 13.8572 13.9825 12.0009 13.9825ZM12.0009 7.7525C10.4261 7.7525 9.13086 9.03499 9.13086 10.6225C9.13086 12.2086 10.4147 13.4925 12.0009 13.4925C13.587 13.4925 14.8709 12.2086 14.8709 10.6225C14.8709 9.03499 13.5756 7.7525 12.0009 7.7525Z" fill="#101010" stroke="#101010"/>
<path d="M3.37716 8.75374L3.37728 8.75318C4.42333 4.14493 8.44285 2.0625 11.9997 2.0625H11.9997H11.9997H11.9997H11.9997H11.9997H11.9997H11.9997H11.9998H11.9998H11.9998H11.9998H11.9998H11.9998H11.9998H11.9998H11.9998H11.9998H11.9998H11.9998H11.9999H11.9999H11.9999H11.9999H11.9999H11.9999H11.9999H11.9999H11.9999H11.9999H11.9999H12H12H12H12H12H12H12H12H12H12.0001H12.0001H12.0001H12.0001H12.0001H12.0001H12.0001H12.0001H12.0002H12.0002H12.0002H12.0002H12.0002H12.0002H12.0002H12.0002H12.0002H12.0002H12.0002H12.0002H12.0002H12.0003H12.0003H12.0003H12.0003H12.0003H12.0003H12.0003H12.0003H12.0003H12.0003H12.0003H12.0004H12.0004H12.0004H12.0004H12.0004H12.0004H12.0004H12.0004H12.0004H12.0004H12.0005H12.0005H12.0005H12.0005H12.0005H12.0005H12.0005H12.0005H12.0005H12.0006H12.0006H12.0006H12.0006H12.0006H12.0006H12.0006H12.0006H12.0007H12.0007H12.0007H12.0007H12.0007H12.0007H12.0007H12.0007H12.0008H12.0008H12.0008H12.0008H12.0008H12.0008H12.0008H12.0009H12.0009H12.0009H12.0009H12.0009H12.0009H12.0009H12.001H12.001H12.001H12.001H12.001H12.001H12.001H12.0011H12.0011H12.0011H12.0011H12.0011H12.0011H12.0012H12.0012H12.0012H12.0012H12.0012H12.0012H12.0013H12.0013H12.0013H12.0013H12.0013H12.0013H12.0014H12.0014H12.0014H12.0014H12.0014H12.0014H12.0015H12.0015H12.0015H12.0015H12.0015H12.0016H12.0016H12.0016H12.0016H12.0016H12.0017H12.0017H12.0017H12.0017H12.0017H12.0018H12.0018H12.0018H12.0018H12.0018H12.0019H12.0019H12.0019H12.0019H12.002H12.002H12.002H12.002H12.002H12.0021H12.0021H12.0021H12.0021H12.0022H12.0022H12.0022H12.0022H12.0022H12.0023H12.0023H12.0023H12.0023H12.0024H12.0024H12.0024H12.0024H12.0025H12.0025H12.0025H12.0025H12.0026H12.0026H12.0026H12.0026H12.0027H12.0027H12.0027H12.0027H12.0028H12.0028H12.0028H12.0029H12.0029H12.0029H12.0029H12.003H12.003H12.003H12.003H12.0031H12.0031H12.0031H12.0032H12.0032H12.0032H12.0033H12.0033H12.0033H12.0033H12.0034H12.0034H12.0034H12.0035H12.0035H12.0035H12.0036H12.0036H12.0036H12.0036H12.0037H12.0037H12.0037H12.0038H12.0038H12.0038H12.0039H12.0039H12.0039H12.004H12.004H12.004H12.0041H12.0041H12.0041H12.0042H12.0042H12.0042H12.0043H12.0043H12.0043H12.0044H12.0044H12.0045H12.0045H12.0045H12.0046H12.0046H12.0046H12.0047H12.0047H12.0047H12.0048H12.0048H12.0049H12.0049H12.0049H12.005H12.005H12.0051H12.0051H12.0051H12.0052H12.0052H12.0052H12.0053H12.0053H12.0054H12.0054H12.0054H12.0055H12.0055H12.0056H12.0056H12.0057H12.0057H12.0057H12.0058H12.0058H12.0059H12.0059H12.0059H12.006H12.006H12.0061H12.0061H12.0062H12.0062H12.0063H12.0063H12.0063H12.0064H12.0064H12.0065H12.0065H12.0066H12.0066H12.0067H12.0067H12.0068H12.0068H12.0068H12.0069H12.0069H12.007H12.007H12.0071H12.0071H12.0072H12.0072H12.0073H12.0073H12.0074H12.0074H12.0075H12.0075H12.0076H12.0076H12.0077H12.0077H12.0078H12.0078H12.0079H12.0079H12.008H12.008H12.0081H12.0081H12.0082H12.0082H12.0083H12.0083H12.0084H12.0085H12.0085H12.0086H12.0086H12.0087H12.0087H12.0088H12.0088H12.0089H12.0089H12.009H12.0091H12.0091H12.0092H12.0092H12.0093H12.0093H12.0094H12.0095H12.0095H12.0096H12.0096H12.0097C15.5662 2.0625 19.5858 4.14462 20.632 8.76297C21.7908 13.8826 18.704 18.2299 15.7836 21.0416C14.7188 22.0604 13.3536 22.5725 11.9997 22.5725C10.6458 22.5725 9.2806 22.0604 8.21575 21.0416C5.2956 18.2301 2.20891 13.8731 3.37716 8.75374ZM20.1475 8.86272L20.147 8.86072C19.0782 4.20045 15.0584 2.5625 11.9997 2.5625C8.94064 2.5625 4.93071 4.20085 3.87222 8.86124C2.72945 13.8462 5.86947 18.08 8.57292 20.6727C10.4967 22.5293 13.5134 22.5291 15.4369 20.6722C18.1302 18.0797 21.2691 13.8466 20.1475 8.86272Z" fill="#101010" stroke="#101010"/>
</svg>
