<svg width="24" height="25" viewBox="0 0 24 25" fill="none" xmlns="http://www.w3.org/2000/svg">
<path opacity="0.4" d="M4.17038 16.1436L8.70038 20.6736C10.5604 22.5336 13.5804 22.5336 15.4504 20.6736L19.8404 16.2836C21.7004 14.4236 21.7004 11.4036 19.8404 9.53355L15.3004 5.01355C14.3504 4.06355 13.0404 3.55355 11.7004 3.62355L6.70038 3.86355C4.70038 3.95355 3.11038 5.54355 3.01038 7.53355L2.77038 12.5336C2.71038 13.8836 3.22038 15.1936 4.17038 16.1436Z" fill="#34A853"/>
<path d="M9.49914 13.2239C11.0897 13.2239 12.3791 11.9344 12.3791 10.3439C12.3791 8.75329 11.0897 7.46387 9.49914 7.46387C7.90856 7.46387 6.61914 8.75329 6.61914 10.3439C6.61914 11.9344 7.90856 13.2239 9.49914 13.2239Z" fill="#34A853"/>
<path d="M12.9995 18.5942C12.8095 18.5942 12.6195 18.5242 12.4695 18.3742C12.1795 18.0842 12.1795 17.6042 12.4695 17.3142L16.4695 13.3142C16.7595 13.0242 17.2395 13.0242 17.5295 13.3142C17.8195 13.6042 17.8195 14.0842 17.5295 14.3742L13.5295 18.3742C13.3795 18.5242 13.1895 18.5942 12.9995 18.5942Z" fill="#34A853"/>
</svg>
