<svg width="24" height="25" viewBox="0 0 24 25" fill="none" xmlns="http://www.w3.org/2000/svg">
<path d="M8.93137 12.7409C8.94368 12.7517 8.95446 12.7605 8.9626 12.767L8.97779 12.7788L8.98649 12.788L10.0065 13.868L10.0066 13.8682C11.0639 14.9869 12.9561 14.9869 14.0134 13.8682L14.0135 13.868L15.0285 12.7934C15.0554 12.7665 15.0623 12.7605 15.07 12.7547L15.0721 12.7532C15.3786 12.5208 15.5953 12.3718 15.86 12.2704C16.1217 12.1702 16.464 12.1047 17.02 12.1047C19.3183 12.1047 20.2973 12.7124 20.7577 13.417C21.2548 14.1779 21.27 15.2013 21.27 16.3547V17.3536C21.2602 19.1849 20.7935 20.4738 19.9569 21.3082C19.1204 22.1426 17.8314 22.6047 16 22.6047H8C5.20166 22.6047 3.97267 21.8646 3.38732 20.9687C2.76516 20.0166 2.75 18.7432 2.75 17.3547V16.3547C2.75 15.2013 2.76516 14.1779 3.26233 13.417C3.72269 12.7124 4.70169 12.1047 7 12.1047C7.55395 12.1047 7.89623 12.1722 8.15845 12.2736C8.41931 12.3745 8.63277 12.5199 8.93137 12.7409ZM8.99109 12.7891C8.99305 12.7907 8.99284 12.7906 8.99102 12.7891L8.99109 12.7891ZM15.4015 13.1136L15.3662 13.1399L15.336 13.1719L14.367 14.2009C14.3668 14.2011 14.3666 14.2013 14.3664 14.2015C13.7399 14.8625 12.901 15.2247 12 15.2247C11.0989 15.2247 10.2599 14.8624 9.63344 14.2013C9.63328 14.2012 9.63313 14.201 9.63298 14.2009L8.664 13.1719L8.63382 13.1399L8.59851 13.1136C8.38963 12.9582 8.18653 12.8084 7.92175 12.717C7.65811 12.6261 7.37099 12.6047 7 12.6047C5.37837 12.6047 4.32575 12.8452 3.75838 13.5907C3.47932 13.9573 3.36054 14.3937 3.30459 14.8446C3.24998 15.2846 3.24999 15.7925 3.25 16.3315L3.25 16.3547V17.3547L3.25 17.3773C3.24999 18.0447 3.24998 18.6791 3.32033 19.2373C3.39206 19.8064 3.54199 20.3475 3.87892 20.8041C4.56629 21.7357 5.86227 22.1047 8 22.1047H16C17.5471 22.1047 18.7698 21.7771 19.5961 20.9508C20.4223 20.1245 20.75 18.9018 20.75 17.3547V16.3547V16.3315C20.75 15.7925 20.75 15.2846 20.6954 14.8446C20.6395 14.3937 20.5207 13.9573 20.2416 13.5907C19.6742 12.8452 18.6216 12.6047 17 12.6047C16.629 12.6047 16.3419 12.6261 16.0783 12.717C15.8135 12.8084 15.6104 12.9582 15.4015 13.1136Z" fill="#101010" stroke="#101010"/>
<path d="M19 13.1047C18.59 13.1047 18.25 12.7647 18.25 12.3547V6.35474C18.25 4.12474 18.25 3.10474 15 3.10474H9C5.75 3.10474 5.75 4.12474 5.75 6.35474V12.3547C5.75 12.7647 5.41 13.1047 5 13.1047C4.59 13.1047 4.25 12.7647 4.25 12.3547V6.35474C4.25 4.12474 4.25 1.60474 9 1.60474H15C19.75 1.60474 19.75 4.12474 19.75 6.35474V12.3547C19.75 12.7647 19.41 13.1047 19 13.1047Z" fill="#101010"/>
<path d="M13.8798 10.3347H10.5498C10.1398 10.3347 9.7998 9.99472 9.7998 9.58472C9.7998 9.17472 10.1398 8.83472 10.5498 8.83472H13.8798C14.2898 8.83472 14.6298 9.17472 14.6298 9.58472C14.6298 9.99472 14.2998 10.3347 13.8798 10.3347Z" fill="currentColor"/>
<path d="M14.7197 7.33472H9.71973C9.30973 7.33472 8.96973 6.99472 8.96973 6.58472C8.96973 6.17472 9.30973 5.83472 9.71973 5.83472H14.7197C15.1297 5.83472 15.4697 6.17472 15.4697 6.58472C15.4697 6.99472 15.1397 7.33472 14.7197 7.33472Z" fill="currentColor"/>
</svg>
