<svg width="20" height="20" viewBox="0 0 20 20" fill="none" xmlns="http://www.w3.org/2000/svg">
<path d="M10.0004 11.3083C8.50069 11.3083 7.27539 10.0897 7.27539 8.58334C7.27539 7.07867 8.499 5.86667 10.0004 5.86667C11.5001 5.86667 12.7254 7.08532 12.7254 8.59167C12.7254 10.0963 11.5018 11.3083 10.0004 11.3083ZM10.0004 6.11667C8.64229 6.11667 7.52539 7.22249 7.52539 8.59167C7.52539 9.95948 8.63258 11.0667 10.0004 11.0667C11.3682 11.0667 12.4754 9.95948 12.4754 8.59167C12.4754 7.22249 11.3585 6.11667 10.0004 6.11667Z" fill="#878787" stroke="#878787"/>
<path d="M2.89522 7.05291L2.89534 7.05235C3.75639 3.2591 7.06424 1.54167 9.99941 1.54167H9.99942H9.99942H9.99943H9.99943H9.99943H9.99944H9.99944H9.99945H9.99945H9.99946H9.99946H9.99946H9.99947H9.99947H9.99948H9.99948H9.99949H9.99949H9.9995H9.9995H9.9995H9.99951H9.99951H9.99952H9.99952H9.99953H9.99954H9.99954H9.99955H9.99955H9.99956H9.99957H9.99957H9.99958H9.99958H9.99959H9.99959H9.9996H9.9996H9.9996H9.99961H9.99961H9.99962H9.99962H9.99962H9.99963H9.99963H9.99964H9.99964H9.99965H9.99965H9.99965H9.99966H9.99966H9.99967H9.99967H9.99968H9.99968H9.99969H9.99969H9.9997H9.9997H9.99971H9.99971H9.99972H9.99972H9.99973H9.99974H9.99974H9.99975H9.99975H9.99976H9.99976H9.99977H9.99978H9.99978H9.99979H9.99979H9.9998H9.99981H9.99981H9.99982H9.99983H9.99983H9.99984H9.99985H9.99985H9.99986H9.99987H9.99988H9.99988H9.99989H9.9999H9.9999H9.99991H9.99992H9.99993H9.99993H9.99994H9.99995H9.99996H9.99997H9.99997H9.99998H9.99999H10H10H10H10H10H10H10H10.0001H10.0001H10.0001H10.0001H10.0001H10.0001H10.0001H10.0001H10.0001H10.0001H10.0002H10.0002H10.0002H10.0002H10.0002H10.0002H10.0002H10.0002H10.0002H10.0002H10.0003H10.0003H10.0003H10.0003H10.0003H10.0003H10.0003H10.0003H10.0003H10.0003H10.0004H10.0004H10.0004H10.0004H10.0004H10.0004H10.0004H10.0004H10.0005H10.0005H10.0005H10.0005H10.0005H10.0005H10.0005H10.0005H10.0006H10.0006H10.0006H10.0006H10.0006H10.0006H10.0006H10.0007H10.0007H10.0007H10.0007H10.0007H10.0007H10.0007H10.0007H10.0008H10.0008H10.0008H10.0008H10.0008H10.0008H10.0009H10.0009H10.0009H10.0009H10.0009H10.0009H10.0009H10.001H10.001H10.001H10.001H10.001H10.001H10.0011H10.0011H10.0011H10.0011H10.0011H10.0011H10.0012H10.0012H10.0012H10.0012H10.0012H10.0012H10.0013H10.0013H10.0013H10.0013H10.0013H10.0014H10.0014H10.0014H10.0014H10.0014H10.0014H10.0015H10.0015H10.0015H10.0015H10.0015H10.0016H10.0016H10.0016H10.0016H10.0016H10.0017H10.0017H10.0017H10.0017H10.0017H10.0018H10.0018H10.0018H10.0018H10.0019H10.0019H10.0019H10.0019H10.0019H10.002H10.002H10.002H10.002H10.0021H10.0021H10.0021H10.0021H10.0021H10.0022H10.0022H10.0022H10.0022H10.0023H10.0023H10.0023H10.0023H10.0024H10.0024H10.0024H10.0024H10.0025H10.0025H10.0025H10.0025H10.0026H10.0026H10.0026H10.0026H10.0027H10.0027H10.0027H10.0027H10.0028H10.0028H10.0028H10.0028H10.0029H10.0029H10.0029H10.003H10.003H10.003H10.003H10.0031H10.0031H10.0031H10.0032H10.0032H10.0032H10.0032H10.0033H10.0033H10.0033H10.0034H10.0034H10.0034H10.0034H10.0035H10.0035H10.0035H10.0036H10.0036H10.0036H10.0037H10.0037H10.0037H10.0038H10.0038H10.0038H10.0039H10.0039H10.0039H10.0039H10.004H10.004H10.004H10.0041H10.0041H10.0041H10.0042H10.0042H10.0042H10.0043H10.0043H10.0044H10.0044H10.0044H10.0045H10.0045H10.0045H10.0046H10.0046H10.0046H10.0047H10.0047H10.0047H10.0048H10.0048H10.0048H10.0049H10.0049H10.005H10.005H10.005H10.0051H10.0051H10.0051H10.0052H10.0052H10.0053H10.0053H10.0053H10.0054H10.0054H10.0055H10.0055H10.0055H10.0056H10.0056H10.0057H10.0057H10.0057H10.0058H10.0058H10.0059H10.0059H10.0059H10.006H10.006H10.0061H10.0061H10.0062H10.0062H10.0062H10.0063H10.0063H10.0064H10.0064H10.0065H10.0065H10.0065H10.0066H10.0066H10.0067H10.0067H10.0068H10.0068H10.0069H10.0069H10.0069H10.007H10.007H10.0071H10.0071H10.0072H10.0072H10.0073H10.0073H10.0074H10.0074H10.0075H10.0075H10.0076H10.0076H10.0077H10.0077H10.0077C12.9426 1.54167 16.2505 3.25876 17.1117 7.06038C18.0672 11.2817 15.5237 14.8757 13.095 17.2141C12.2235 18.0479 11.1066 18.4667 9.99941 18.4667C8.89222 18.4667 7.77539 18.0479 6.90388 17.2142C4.47539 14.876 1.93196 11.274 2.89522 7.05291ZM16.8706 7.10689L16.8701 7.10489C15.9679 3.17128 12.5731 1.79167 9.99941 1.79167C7.42536 1.79167 4.03876 3.17169 3.14528 7.10544C2.18251 11.3054 4.82926 14.8626 7.08606 17.027C8.72132 18.6049 11.2859 18.6049 12.9212 17.0269C15.1695 14.8627 17.8156 11.3061 16.8706 7.10689Z" fill="#878787" stroke="#878787"/>
</svg>
