<svg width="24" height="25" viewBox="0 0 24 25" fill="none" xmlns="http://www.w3.org/2000/svg">
<path d="M11.25 14.3954H11.75V13.8954V11.6454C11.75 11.5791 11.7763 11.5155 11.8232 11.4686C11.8701 11.4217 11.9337 11.3954 12 11.3954C12.0663 11.3954 12.1299 11.4217 12.1768 11.4686C12.2237 11.5155 12.25 11.5791 12.25 11.6454V13.8954V14.3954H12.75H15C15.0663 14.3954 15.1299 14.4217 15.1768 14.4686C15.2237 14.5155 15.25 14.5791 15.25 14.6454C15.25 14.7117 15.2237 14.7753 15.1768 14.8222C15.1299 14.869 15.0663 14.8954 15 14.8954H12.75H12.25V15.3954V17.6454C12.25 17.7117 12.2237 17.7753 12.1768 17.8222C12.1299 17.869 12.0663 17.8954 12 17.8954C11.9337 17.8954 11.8701 17.869 11.8232 17.8222C11.7763 17.7753 11.75 17.7117 11.75 17.6454V15.3954V14.8954H11.25H9C8.9337 14.8954 8.87011 14.869 8.82322 14.8222C8.77634 14.7753 8.75 14.7117 8.75 14.6454C8.75 14.5791 8.77634 14.5155 8.82322 14.4686C8.87011 14.4217 8.9337 14.3954 9 14.3954H11.25Z" fill="#101010" stroke="#101010"/>
<path fill-rule="evenodd" clip-rule="evenodd" d="M12 1.89539C11.292 1.89539 10.649 2.09839 9.95 2.43739C9.276 2.76539 8.496 3.24939 7.523 3.85339L5.456 5.13639C4.536 5.70839 3.797 6.16639 3.229 6.60139C2.64 7.05139 2.188 7.51139 1.861 8.10839C1.535 8.70339 1.389 9.33739 1.318 10.0864C1.25 10.8114 1.25 11.6994 1.25 12.8124V14.4254C1.25 16.3294 1.25 17.8324 1.403 19.0074C1.559 20.2124 1.889 21.1854 2.633 21.9544C3.38 22.7274 4.33 23.0734 5.508 23.2364C6.648 23.3954 8.106 23.3954 9.942 23.3954H14.058C15.894 23.3954 17.352 23.3954 18.492 23.2364C19.669 23.0734 20.62 22.7274 21.368 21.9544C22.111 21.1854 22.441 20.2124 22.598 19.0074C22.75 17.8324 22.75 16.3294 22.75 14.4254V12.8124C22.75 11.6994 22.75 10.8124 22.682 10.0864C22.612 9.33639 22.465 8.70339 22.139 8.10839C21.812 7.51139 21.359 7.05239 20.771 6.60139C20.203 6.16539 19.465 5.70839 18.544 5.13639L16.477 3.85339C15.504 3.24939 14.724 2.76539 14.049 2.43739C13.352 2.09739 12.709 1.89539 12 1.89539ZM8.28 5.14939C9.295 4.51939 10.01 4.07739 10.607 3.78639C11.188 3.50339 11.6 3.39539 12 3.39539C12.4 3.39539 12.812 3.50339 13.393 3.78639C13.991 4.07639 14.705 4.51939 15.72 5.14939L17.72 6.39039C18.681 6.98739 19.356 7.40639 19.86 7.79239C20.349 8.16739 20.63 8.47639 20.823 8.82839C21.016 9.18139 21.129 9.59439 21.188 10.2264C21.249 10.8744 21.25 11.6914 21.25 12.8494V14.3704C21.25 16.3404 21.248 17.7464 21.11 18.8134C20.974 19.8614 20.717 20.4694 20.29 20.9124C19.865 21.3514 19.287 21.6124 18.286 21.7514C17.26 21.8934 15.907 21.8954 14 21.8954H10C8.092 21.8954 6.74 21.8934 5.714 21.7514C4.713 21.6114 4.135 21.3514 3.711 20.9114C3.283 20.4694 3.026 19.8614 2.891 18.8134C2.751 17.7464 2.75 16.3414 2.75 14.3704V12.8494C2.75 11.6914 2.75 10.8744 2.812 10.2264C2.871 9.59439 2.984 9.18139 3.177 8.82839C3.37 8.47639 3.651 8.16739 4.141 7.79239C4.644 7.40639 5.319 6.98739 6.28 6.39039L8.28 5.14939Z" fill="#101010"/>
</svg>
