<svg width="24" height="25" viewBox="0 0 24 25" fill="none" xmlns="http://www.w3.org/2000/svg">
<path d="M17 21.1881H7C5.25409 21.1881 3.93427 20.6873 3.05088 19.8039C2.16748 18.9205 1.66667 17.6006 1.66667 15.8547V8.85474C1.66667 7.10883 2.16748 5.78901 3.05088 4.90561C3.93427 4.02222 5.25409 3.5214 7 3.5214H17C18.7459 3.5214 20.0657 4.02222 20.9491 4.90561C21.8325 5.78901 22.3333 7.10883 22.3333 8.85474V15.8547C22.3333 17.6006 21.8325 18.9205 20.9491 19.8039C20.0657 20.6873 18.7459 21.1881 17 21.1881ZM7 4.18807C5.50876 4.18807 4.32005 4.55043 3.50787 5.36261C2.6957 6.17479 2.33333 7.3635 2.33333 8.85474V15.8547C2.33333 17.346 2.6957 18.5347 3.50787 19.3469C4.32005 20.159 5.50876 20.5214 7 20.5214H17C18.4912 20.5214 19.68 20.159 20.4921 19.3469C21.3043 18.5347 21.6667 17.346 21.6667 15.8547V8.85474C21.6667 7.3635 21.3043 6.17479 20.4921 5.36261C19.68 4.55043 18.4912 4.18807 17 4.18807H7Z" stroke="currentColor" stroke-width="0.833333"/>
<path d="M9.92309 12.1118L9.9231 12.1118L9.91982 12.1091L6.79142 9.61043C6.64196 9.48804 6.62581 9.27958 6.73316 9.14745C6.85543 8.99697 7.06458 8.98047 7.19704 9.08809L7.19703 9.0881L7.19975 9.09027L10.329 11.5897C10.3291 11.5898 10.3292 11.5899 10.3293 11.5899C10.7965 11.9648 11.4061 12.1389 11.9948 12.1389C12.5834 12.1389 13.193 11.9648 13.6602 11.5899C13.6603 11.5898 13.6605 11.5897 13.6606 11.5897L16.7898 9.09027L16.7898 9.09029L16.7925 9.08809C16.9355 8.97193 17.1445 9.00014 17.2477 9.13631L17.2519 9.14196L17.2564 9.14745C17.3726 9.29042 17.3444 9.49942 17.2082 9.60259L17.2081 9.60248L17.1997 9.60914L14.0697 12.1091L14.0697 12.1091L14.064 12.1138C13.5105 12.5721 12.7592 12.808 11.9998 12.808C11.2411 12.808 10.4881 12.5725 9.92309 12.1118Z" stroke="currentColor" stroke-width="0.833333"/>
</svg>
