<svg width="32" height="32" viewBox="0 0 32 32" fill="none" xmlns="http://www.w3.org/2000/svg">
<path opacity="0.4" d="M22.6641 27.3332H9.33073C5.33073 27.3332 2.66406 25.3332 2.66406 20.6665V11.3332C2.66406 6.6665 5.33073 4.6665 9.33073 4.6665H22.6641C26.6641 4.6665 29.3307 6.6665 29.3307 11.3332V20.6665C29.3307 25.3332 26.6641 27.3332 22.6641 27.3332Z" fill="#E52926"/>
<path d="M15.9984 17.16C14.8784 17.16 13.7451 16.8133 12.8784 16.1066L8.70507 12.7733C8.2784 12.4266 8.19841 11.8 8.54507 11.3733C8.89174 10.9466 9.51841 10.8666 9.94508 11.2133L14.1184 14.5466C15.1317 15.36 16.8517 15.36 17.8651 14.5466L22.0384 11.2133C22.4651 10.8666 23.1051 10.9333 23.4384 11.3733C23.7851 11.8 23.7184 12.44 23.2784 12.7733L19.1051 16.1066C18.2517 16.8133 17.1184 17.16 15.9984 17.16Z" fill="#E52926"/>
</svg>
