<svg width="24" height="25" viewBox="0 0 24 25" fill="none" xmlns="http://www.w3.org/2000/svg">
<path d="M11.8821 12.8844L11.9726 12.8877L12.0036 12.8774C12.0116 12.8776 12.0206 12.8779 12.0305 12.8784C12.0466 12.8793 12.0638 12.8805 12.0807 12.8822L12.1186 12.886L12.1566 12.884C13.7635 12.8001 15.0185 11.4802 15.0305 9.85839H15.0305V9.85472C15.0305 8.18986 13.6779 6.82472 12.0005 6.82472C10.323 6.82472 8.97047 8.18986 8.97047 9.85472C8.97047 11.4926 10.2521 12.8245 11.8821 12.8844ZM12.1205 13.3847H12.1204H12.1202H12.1201H12.12H12.1199H12.1198H12.1196H12.1195H12.1194H12.1193H12.1192H12.119H12.1189H12.1188H12.1187H12.1186H12.1184H12.1183H12.1182H12.1181H12.118H12.1178H12.1177H12.1176H12.1175H12.1173H12.1172H12.1171H12.117H12.1169H12.1167H12.1166H12.1165H12.1164H12.1162H12.1161H12.116H12.1159H12.1157H12.1156H12.1155H12.1154H12.1152H12.1151H12.115H12.1149H12.1147H12.1146H12.1145H12.1143H12.1142H12.1141H12.114H12.1138H12.1137H12.1136H12.1134H12.1133H12.1132H12.1131H12.1129H12.1128H12.1127H12.1125H12.1124H12.1123H12.1121H12.112H12.1119H12.1118H12.1116H12.1115H12.1114H12.1112H12.1111H12.111H12.1108H12.1107H12.1106H12.1104H12.1103H12.1102H12.11H12.1099H12.1098H12.1096H12.1095H12.1094H12.1092H12.1091H12.109H12.1088H12.1087H12.1086H12.1084H12.1083H12.1082H12.108H12.1079H12.1078H12.1076H12.1075H12.1073H12.1072H12.1071H12.1069H12.1068H12.1067H12.1065H12.1064H12.1063H12.1061H12.106H12.1058H12.1057H12.1056H12.1054H12.1053H12.1052H12.105H12.1049H12.1047H12.1046H12.1045H12.1043H12.1042H12.104H12.1039H12.1038H12.1036H12.1035H12.1033H12.1032H12.1031H12.1029H12.1028H12.1026H12.1025H12.1024H12.1022H12.1021H12.1019H12.1018H12.1017H12.1015H12.1014H12.1012H12.1011H12.101H12.1008H12.1007H12.1005H12.1004H12.1003H12.1001H12.1H12.0998H12.0997H12.0995H12.0994H12.0993H12.0991H12.099H12.0988H12.0987H12.0985H12.0984H12.0983H12.0981H12.098H12.0978H12.0977H12.0975H12.0974H12.0973H12.0971H12.097H12.0968H12.0967H12.0965H12.0964H12.0962H12.0961H12.096H12.0958H12.0957H12.0955H12.0954H12.0952H12.0951H12.0949H12.0948H12.0947H12.0945H12.0944H12.0942H12.0941H12.0939H12.0938H12.0936H12.0935H12.0934H12.0932H12.0931H12.0929H12.0928H12.0926H12.0925H12.0923H12.0922H12.092H12.0919H12.0918H12.0916H12.0915H12.0913H12.0912H12.091H12.0909H12.0907H12.0906H12.0904H12.0903H12.0902H12.09H12.0899H12.0897H12.0896H12.0894H12.0893H12.0891H12.089H12.0888H12.0887H12.0885H12.0884H12.0883H12.0881H12.088H12.0878H12.0877H12.0875H12.0874H12.0872H12.0871H12.0869H12.0868H12.0866H12.0865H12.0863H12.0862H12.0861H12.0859H12.0858H12.0856H12.0855H12.0853H12.0852H12.085H12.0849H12.0847H12.0846H12.0844H12.0843H12.0842H12.084H12.0839H12.0837H12.0836H12.0834H12.0833H12.0831H12.083H12.0828H12.0827H12.0825H12.0824H12.0822H12.0821H12.082H12.0818H12.0817H12.0815H12.0814H12.0812H12.0811H12.0809H12.0808H12.0806H12.0805H12.0803H12.0802H12.0801H12.0799H12.0798H12.0796H12.0795H12.0793H12.0792H12.079H12.0789H12.0787H12.0786H12.0785H12.0783H12.0782H12.078H12.0779H12.0777H12.0776H12.0774H12.0773H12.0771H12.077H12.0769H12.0767H12.0766H12.0764H12.0763H12.0761H12.076H12.0758H12.0757H12.0756H12.0754H12.0753H12.0751H12.075H12.0748H12.0747H12.0745H12.0744H12.0743H12.0741H12.074H12.0738H12.0737H12.0735H12.0734H12.0733H12.0731H12.073H12.0728H12.0727H12.0725H12.0724H12.0723H12.0721H12.072H12.0718H12.0717H12.0715H12.0714H12.0713H12.0711H12.071H12.0708H12.0707H12.0705H12.0704H12.0703H12.0701H12.07H12.0698H12.0697H12.0696H12.0694H12.0693H12.0691H12.069H12.0688H12.0687H12.0686H12.0684H12.0683H12.0681H12.068H12.0679H12.0677H12.0676H12.0674H12.0673H12.0672H12.067H12.0669H12.0668H12.0666H12.0665H12.0663H12.0662H12.0661H12.0659H12.0658H12.0656H12.0655H12.0654H12.0652H12.0651H12.065H12.0648H12.0647H12.0645H12.0644H12.0643H12.0641H12.064H12.0639H12.0637H12.0636H12.0635H12.0633H12.0632H12.063H12.0629H12.0628H12.0626H12.0625H12.0624H12.0622H12.0621H12.062H12.0618H12.0617H12.0616H12.0614H12.0613H12.0612H12.061H12.0609H12.0608H12.0606H12.0605H12.0604H12.0602H12.0601H12.06H12.0598H12.0597H12.0596H12.0594H12.0593H12.0592H12.0591H12.0589H12.0588H12.0587H12.0585H12.0584H12.0583H12.0581H12.058H12.0579H12.0578H12.0576H12.0575H12.0574H12.0572H12.0571H12.057H12.0569H12.0567H12.0566H12.0565H12.0563H12.0562H12.0561H12.056H12.0558H12.0557H12.0556H12.0555H12.0553H12.0552H12.0551H12.055H12.0548H12.0547H12.0546H12.0545H12.0543H12.0542H12.0541H12.054H12.0538H12.0537H12.0536H12.0535H12.0533H12.0532H12.0531H12.053H12.0529H12.0527H12.0526H12.0525H12.0524H12.0523H12.0521H12.052H12.0519H12.0518H12.0517H12.0515H12.0514H12.0513H12.0512H12.0511H12.0509H12.0508H12.0507H12.0506H12.0505H12.0503H12.0501H12.0499H12.0498H12.0496H12.0494H12.0492H12.0491H12.0489H12.0487H12.0485H12.0483H12.0482H12.048H12.0478H12.0476H12.0474H12.0473H12.0471H12.0469H12.0467H12.0465H12.0464H12.0462H12.046H12.0458H12.0456H12.0455H12.0453H12.0451H12.0449H12.0447H12.0445H12.0444H12.0442H12.044H12.0438H12.0436H12.0434H12.0433H12.0431H12.0429H12.0427H12.0425H12.0423H12.0422H12.042H12.0418H12.0416H12.0414H12.0412H12.041H12.0409H12.0407H12.0405H12.0403H12.0401H12.0399H12.0397H12.0395H12.0394H12.0392H12.039H12.0388H12.0386H12.0384H12.0382H12.038H12.0378H12.0377H12.0375H12.0373H12.0371H12.0369H12.0367H12.0365H12.0363H12.0361H12.0359H12.0358H12.0356H12.0354H12.0352H12.035H12.0348H12.0346H12.0344H12.0342H12.034H12.0338H12.0336H12.0334H12.0333H12.0331H12.0329H12.0327H12.0325H12.0323H12.0321H12.0319H12.0317H12.0315H12.0313H12.0311H12.0309H12.0307H12.0305H12.0303H12.0301H12.0299H12.0298H12.0296H12.0294H12.0292H12.029H12.0288H12.0286H12.0284H12.0282H12.028H12.0278H12.0276H12.0274H12.0272H12.027H12.0268H12.0266H12.0264H12.0262H12.026H12.0258H12.0256H12.0254H12.0252H12.025H12.0248H12.0246H12.0244H12.0242H12.024H12.0238H12.0236H12.0234H12.0232H12.023H12.0228H12.0226H12.0224H12.0222H12.022H12.0218H12.0216H12.0214H12.0212H12.021H12.0208H12.0206H12.0204H12.0202H12.02H12.0198H12.0196H12.0194H12.0192H12.019H12.0188H12.0186H12.0184H12.0182H12.018H12.0178H12.0176H12.0174H12.0172H12.017H12.0168H12.0166H12.0164H12.0162H12.016H12.0158H12.0156H12.0154H12.0152H12.015H12.0148H12.0146H12.0144H12.0142H12.014H12.0138H12.0136H12.0134H12.0131H12.0129H12.0127H12.0125H12.0123H12.0121H12.0119H12.0117H12.0115H12.0113H12.0111H12.0109H12.0107H12.0105H12.0103H12.0101H12.0099H12.0097H12.0095H12.0093H12.0091H12.0089H12.0087H12.0085H12.0083H12.008H12.0078H12.0076H12.0074H12.0072H12.007H12.0068H12.0066H12.0064H12.0062H12.006H12.0058H12.0056H12.0054H12.0052H12.005H12.0048H12.0046H12.0044H12.0042H12.004H12.0037H12.0035H12.0033H12.0031H12.0029H12.0027H12.0025H12.0023H12.0021H12.0019H12.0017H12.0015H12.0013H12.0011H12.0009H12.0007H12.0005H12.0003H12.0001H11.9999H11.9996H11.9994H11.9992H11.999H11.9988H11.9986H11.9984H11.9982H11.998H11.9978H11.9976H11.9974H11.9972H11.997H11.9968H11.9966H11.9964H11.9962H11.996H11.9958H11.9955H11.9953H11.9951H11.9949H11.9947H11.9945H11.9943H11.9941H11.9939H11.9937H11.9935H11.9933H11.9931H11.9929H11.9927H11.9925H11.9923H11.9921H11.9919H11.9917H11.9915H11.9913H11.991H11.9908H11.9906H11.9904H11.9902H11.99H11.9898H11.9896H11.9894H11.9892H11.989H11.9888H11.9886H11.9884H11.9882H11.988H11.9878H11.9876H11.9874H11.9872H11.987H11.9868H11.9866H11.9864H11.9862H11.986H11.9858H11.9856H11.9854H11.9852H11.9849H11.9847H11.9845H11.9843H11.9841H11.9839H11.9837H11.9835H11.9833H11.9831H11.9829H11.9827H11.9825H11.9823H11.9821H11.9819H11.9817H11.9815H11.9813H11.9811H11.9809H11.9807H11.9805H11.9803H11.9801H11.9799H11.9797H11.9795H11.9793H11.9791H11.9789H11.9787H11.9785H11.9783H11.9781H11.9779H11.9777H11.9775H11.9773H11.9771H11.9769H11.9767H11.9765H11.9763H11.9761H11.9759H11.9757H11.9755H11.9753H11.9751H11.9749H11.9747H11.9745H11.9743H11.9741H11.9739H11.9737H11.9735H11.9733H11.9731H11.973H11.9728H11.9726H11.9724H11.9722H11.972H11.9718H11.9716H11.9714H11.9712H11.971H11.9708H11.9706H11.9704H11.9702H11.97H11.9698H11.9696H11.9694H11.9692H11.969H11.9688H11.9687H11.9685H11.9683H11.9681H11.9679H11.9677H11.9675H11.9673H11.9671H11.9669H11.9667H11.9665H11.9663H11.9661H11.966H11.9658H11.9656H11.9654H11.9652H11.965H11.9648H11.9646H11.9644H11.9642H11.964H11.9639H11.9637H11.9635H11.9633H11.9631H11.9629H11.9627H11.9625H11.9623H11.9621H11.962H11.9618H11.9616H11.9614H11.9612H11.961H11.9608H11.9606H11.9605H11.9603H11.9601H11.9599H11.9597H11.9595H11.9593H11.9592H11.959H11.9588H11.9586H11.9584H11.9584C9.95761 13.3193 8.48047 11.7676 8.48047 9.86472C8.48047 7.92086 10.0666 6.33472 12.0105 6.33472C13.9539 6.33472 15.5399 7.92024 15.5405 9.86358C15.5311 11.7833 14.0374 13.3195 12.1421 13.3847H12.1421H12.142H12.1419H12.1419H12.1418H12.1417H12.1416H12.1415H12.1415H12.1414H12.1413H12.1412H12.1411H12.1411H12.141H12.1409H12.1408H12.1407H12.1407H12.1406H12.1405H12.1404H12.1404H12.1403H12.1402H12.1401H12.14H12.14H12.1399H12.1398H12.1398H12.1397H12.1396H12.1395H12.1395H12.1394H12.1393H12.1392H12.1392H12.1391H12.139H12.139H12.1389H12.1388H12.1387H12.1387H12.1386H12.1385H12.1385H12.1384H12.1383H12.1383H12.1382H12.1381H12.1381H12.138H12.1379H12.1379H12.1378H12.1377H12.1377H12.1376H12.1375H12.1375H12.1374H12.1373H12.1373H12.1372H12.1372H12.1371H12.137H12.137H12.1369H12.1368H12.1368H12.1367H12.1367H12.1366H12.1365H12.1365H12.1364H12.1364H12.1363H12.1362H12.1362H12.1361H12.1361H12.136H12.1359H12.1359H12.1358H12.1358H12.1357H12.1357H12.1356H12.1355H12.1355H12.1354H12.1354H12.1353H12.1353H12.1352H12.1352H12.1351H12.135H12.135H12.1349H12.1349H12.1348H12.1348H12.1347H12.1347H12.1346H12.1346H12.1345H12.1345H12.1344H12.1343H12.1343H12.1342H12.1342H12.1341H12.1341H12.134H12.134H12.1339H12.1339H12.1338H12.1338H12.1337H12.1337H12.1336H12.1336H12.1335H12.1335H12.1334H12.1334H12.1333H12.1333H12.1332H12.1332H12.1331H12.1331H12.133H12.133H12.133H12.1329H12.1329H12.1328H12.1328H12.1327H12.1327H12.1326H12.1326H12.1325H12.1325H12.1324H12.1324H12.1323H12.1323H12.1323H12.1322H12.1322H12.1321H12.1321H12.132H12.132H12.1319H12.1319H12.1319H12.1318H12.1318H12.1317H12.1317H12.1316H12.1316H12.1315H12.1315H12.1315H12.1314H12.1314H12.1313H12.1313H12.1312H12.1312H12.1312H12.1311H12.1311H12.131H12.131H12.1309H12.1309H12.1309H12.1308H12.1308H12.1307H12.1307H12.1307H12.1306H12.1306H12.1305H12.1305H12.1304H12.1304H12.1304H12.1303H12.1303H12.1302H12.1302H12.1302H12.1301H12.1301H12.13H12.13H12.13H12.1299H12.1299H12.1298H12.1298H12.1298H12.1297H12.1297H12.1296H12.1296H12.1296H12.1295H12.1295H12.1294H12.1294H12.1294H12.1293H12.1293H12.1292H12.1292H12.1292H12.1291H12.1291H12.129H12.129H12.129H12.1289H12.1289H12.1288H12.1288H12.1288H12.1287H12.1287H12.1287H12.1286H12.1286H12.1285H12.1285H12.1285H12.1284H12.1284H12.1283H12.1283H12.1283H12.1282H12.1282H12.1281H12.1281H12.1281H12.128H12.128H12.1279H12.1279H12.1279H12.1278H12.1278H12.1278H12.1277H12.1277H12.1276H12.1276H12.1276H12.1275H12.1275H12.1274H12.1274H12.1274H12.1273H12.1273H12.1272H12.1272H12.1272H12.1271H12.1271H12.127H12.127H12.127H12.1269H12.1269H12.1268H12.1268H12.1268H12.1267H12.1267H12.1266H12.1266H12.1266H12.1265H12.1265H12.1264H12.1264H12.1264H12.1263H12.1263H12.1262H12.1262H12.1262H12.1261H12.1261H12.126H12.126H12.126H12.1259H12.1259H12.1258H12.1258H12.1257H12.1257H12.1257H12.1256H12.1256H12.1255H12.1255H12.1254H12.1254H12.1254H12.1253H12.1253H12.1252H12.1252H12.1252H12.1251H12.1251H12.125H12.125H12.1249H12.1249H12.1248H12.1248H12.1248H12.1247H12.1247H12.1246H12.1246H12.1245H12.1245H12.1244H12.1244H12.1244H12.1243H12.1243H12.1242H12.1242H12.1241H12.1241H12.124H12.124H12.1239H12.1239H12.1239H12.1238H12.1238H12.1237H12.1237H12.1236H12.1236H12.1235H12.1235H12.1234H12.1234H12.1233H12.1233H12.1232H12.1232H12.1231H12.1231H12.123H12.123H12.1229H12.1229H12.1228H12.1228H12.1227H12.1227H12.1226H12.1226H12.1225H12.1225H12.1224H12.1224H12.1223H12.1223H12.1222H12.1222H12.1221H12.1221H12.122H12.122H12.1219H12.1219H12.1218H12.1218H12.1217H12.1217H12.1216H12.1215H12.1215H12.1214H12.1214H12.1213H12.1213H12.1212H12.1212H12.1211H12.121H12.121H12.1209H12.1209H12.1208H12.1208H12.1207H12.1206H12.1206H12.1205H12.1205Z" fill="#101010" stroke="#101010"/>
<path d="M11.9998 23.1047C9.30984 23.1047 6.73984 22.1047 4.74984 20.2847C4.56984 20.1247 4.48984 19.8847 4.50984 19.6547C4.63984 18.4647 5.37984 17.3547 6.60984 16.5347C9.58984 14.5547 14.4198 14.5547 17.3898 16.5347C18.6198 17.3647 19.3598 18.4647 19.4898 19.6547C19.5198 19.8947 19.4298 20.1247 19.2498 20.2847C17.2598 22.1047 14.6898 23.1047 11.9998 23.1047ZM6.07984 19.4547C7.73984 20.8447 9.82984 21.6047 11.9998 21.6047C14.1698 21.6047 16.2598 20.8447 17.9198 19.4547C17.7398 18.8447 17.2598 18.2547 16.5498 17.7747C14.0898 16.1347 9.91984 16.1347 7.43984 17.7747C6.72984 18.2547 6.25984 18.8447 6.07984 19.4547Z" fill="#101010"/>
<path d="M12 23.1047C6.07 23.1047 1.25 18.2847 1.25 12.3547C1.25 6.42474 6.07 1.60474 12 1.60474C17.93 1.60474 22.75 6.42474 22.75 12.3547C22.75 18.2847 17.93 23.1047 12 23.1047ZM12 3.10474C6.9 3.10474 2.75 7.25474 2.75 12.3547C2.75 17.4547 6.9 21.6047 12 21.6047C17.1 21.6047 21.25 17.4547 21.25 12.3547C21.25 7.25474 17.1 3.10474 12 3.10474Z" fill="#101010"/>
</svg>
