<svg width="24" height="25" viewBox="0 0 24 25" fill="none" xmlns="http://www.w3.org/2000/svg">
<path d="M22 23.1046H2C1.59 23.1046 1.25 22.7646 1.25 22.3546C1.25 21.9446 1.59 21.6046 2 21.6046H22C22.41 21.6046 22.75 21.9446 22.75 22.3546C22.75 22.7646 22.41 23.1046 22 23.1046Z" fill="#3B82F6"/>
<path opacity="0.4" d="M21.0002 10.3345V22.3546H2.9502L3.00019 10.3245C3.00019 9.71453 3.2802 9.13459 3.7702 8.75459L10.7702 3.31458C11.4902 2.74458 12.5102 2.74458 13.2302 3.31458L14.5702 4.35456L19.0002 7.79457L20.2302 8.75459C20.7202 9.13459 21.0002 9.71454 21.0002 10.3345Z" fill="#3B82F6"/>
<path d="M13 17.3546H11C10.17 17.3546 9.5 18.0246 9.5 18.8546V22.3546H14.5V18.8546C14.5 18.0246 13.83 17.3546 13 17.3546Z" fill="#3B82F6"/>
<path d="M9.5 14.1046H7.5C6.95 14.1046 6.5 13.6546 6.5 13.1046V11.6046C6.5 11.0546 6.95 10.6046 7.5 10.6046H9.5C10.05 10.6046 10.5 11.0546 10.5 11.6046V13.1046C10.5 13.6546 10.05 14.1046 9.5 14.1046Z" fill="#3B82F6"/>
<path d="M16.5 14.1046H14.5C13.95 14.1046 13.5 13.6546 13.5 13.1046V11.6046C13.5 11.0546 13.95 10.6046 14.5 10.6046H16.5C17.05 10.6046 17.5 11.0546 17.5 11.6046V13.1046C17.5 13.6546 17.05 14.1046 16.5 14.1046Z" fill="#3B82F6"/>
<path d="M19.0003 7.79462L14.5703 4.35461H17.9803C18.5303 4.35461 18.9803 4.7946 18.9803 5.3446L19.0003 7.79462Z" fill="#3B82F6"/>
</svg>
