<svg width="25" height="24" viewBox="0 0 25 24" fill="none" xmlns="http://www.w3.org/2000/svg">
<path d="M17.5 20.8314H7.5C5.75409 20.8314 4.43427 20.3306 3.55088 19.4472C2.66748 18.5638 2.16667 17.244 2.16667 15.498V8.49805C2.16667 6.75214 2.66748 5.43232 3.55088 4.54892C4.43427 3.66553 5.75409 3.16471 7.5 3.16471H17.5C19.2459 3.16471 20.5657 3.66553 21.4491 4.54892C22.3325 5.43232 22.8333 6.75214 22.8333 8.49805V15.498C22.8333 17.244 22.3325 18.5638 21.4491 19.4472C20.5657 20.3306 19.2459 20.8314 17.5 20.8314ZM7.5 3.83138C6.00876 3.83138 4.82005 4.19374 4.00787 5.00592C3.1957 5.8181 2.83333 7.00681 2.83333 8.49805V15.498C2.83333 16.9893 3.1957 18.178 4.00787 18.9902C4.82005 19.8024 6.00876 20.1647 7.5 20.1647H17.5C18.9912 20.1647 20.18 19.8024 20.9921 18.9902C21.8043 18.178 22.1667 16.9893 22.1667 15.498V8.49805C22.1667 7.00681 21.8043 5.8181 20.9921 5.00592C20.18 4.19374 18.9912 3.83138 17.5 3.83138H7.5Z" stroke="#101010" stroke-width="0.833333"/>
<path d="M10.4228 11.7551L10.4229 11.7551L10.4196 11.7525L7.29118 9.25374C7.14172 9.13135 7.12556 8.92289 7.23292 8.79076C7.35519 8.64028 7.56434 8.62378 7.69679 8.7314L7.69678 8.73141L7.6995 8.73358L10.8287 11.233C10.8289 11.2331 10.829 11.2332 10.8292 11.2333C11.2964 11.6081 11.9059 11.7822 12.4945 11.7822C13.0831 11.7822 13.6927 11.6081 14.1599 11.2333C14.16 11.2332 14.1602 11.2331 14.1603 11.233L17.2896 8.73359L17.2896 8.7336L17.2923 8.7314C17.4352 8.61524 17.6443 8.64345 17.7474 8.77962L17.7517 8.78527L17.7562 8.79076C17.8723 8.93373 17.8441 9.14273 17.7079 9.2459L17.7079 9.24579L17.6995 9.25245L14.5695 11.7525L14.5695 11.7524L14.5638 11.7571C14.0103 12.2155 13.259 12.4513 12.4995 12.4513C11.7408 12.4513 10.9879 12.2158 10.4228 11.7551Z" stroke="#101010" stroke-width="0.833333"/>
</svg>
