<svg width="24" height="25" viewBox="0 0 24 25" fill="none" xmlns="http://www.w3.org/2000/svg">
<path d="M17 21.4787H7C5.25409 21.4787 3.93427 20.9779 3.05088 20.0945C2.16748 19.2111 1.66667 17.8913 1.66667 16.1454V9.14539C1.66667 7.39948 2.16748 6.07966 3.05088 5.19626C3.93427 4.31287 5.25409 3.81205 7 3.81205H17C18.7459 3.81205 20.0657 4.31287 20.9491 5.19626C21.8325 6.07966 22.3333 7.39948 22.3333 9.14539V16.1454C22.3333 17.8913 21.8325 19.2111 20.9491 20.0945C20.0657 20.9779 18.7459 21.4787 17 21.4787ZM7 4.47872C5.50876 4.47872 4.32005 4.84108 3.50787 5.65326C2.6957 6.46544 2.33333 7.65414 2.33333 9.14539V16.1454C2.33333 17.6366 2.6957 18.8253 3.50787 19.6375C4.32005 20.4497 5.50876 20.8121 7 20.8121H17C18.4912 20.8121 19.68 20.4497 20.4921 19.6375C21.3043 18.8253 21.6667 17.6366 21.6667 16.1454V9.14539C21.6667 7.65414 21.3043 6.46544 20.4921 5.65326C19.68 4.84108 18.4912 4.47872 17 4.47872H7Z" stroke="#101010" stroke-width="0.833333"/>
<path d="M9.92309 12.4024L9.9231 12.4024L9.91982 12.3998L6.79142 9.90108C6.64196 9.77869 6.62581 9.57023 6.73316 9.4381C6.85543 9.28762 7.06458 9.27112 7.19704 9.37874L7.19703 9.37875L7.19975 9.38092L10.329 11.8803C10.3291 11.8804 10.3292 11.8805 10.3293 11.8806C10.7965 12.2554 11.4061 12.4295 11.9948 12.4295C12.5834 12.4295 13.193 12.2554 13.6602 11.8806C13.6603 11.8805 13.6605 11.8804 13.6606 11.8803L16.7898 9.38092L16.7898 9.38094L16.7925 9.37874C16.9355 9.26258 17.1445 9.29079 17.2477 9.42696L17.2519 9.43261L17.2564 9.4381C17.3726 9.58107 17.3444 9.79007 17.2082 9.89324L17.2081 9.89313L17.1997 9.89979L14.0697 12.3998L14.0697 12.3997L14.064 12.4044C13.5105 12.8628 12.7592 13.0987 11.9998 13.0987C11.2411 13.0987 10.4881 12.8631 9.92309 12.4024Z" stroke="#101010" stroke-width="0.833333"/>
</svg>
