<svg width="30" height="30" viewBox="0 0 30 30" fill="none" xmlns="http://www.w3.org/2000/svg">
<path fill-rule="evenodd" clip-rule="evenodd" d="M23.5709 5.02396H25.8566C26.7663 5.02396 27.6383 5.34312 28.2806 5.91176C28.924 6.47939 29.2852 7.25003 29.2852 8.05401C29.2852 12.2799 29.2852 22.0084 29.2852 26.2343C29.2852 27.0383 28.924 27.8089 28.2806 28.3766C27.6383 28.9452 26.7663 29.2644 25.8566 29.2644C21.8989 29.2644 13.8143 29.2644 9.85658 29.2644C8.94687 29.2644 8.07487 28.9452 7.43258 28.3766C6.78915 27.8089 6.42801 27.0383 6.42801 26.2343V25.2243H4.1423C3.23258 25.2243 2.36058 24.9051 1.71829 24.3365C1.07486 23.7689 0.713724 22.9982 0.713724 22.1943C0.713724 17.9683 0.713724 8.23985 0.713724 4.01394C0.713724 3.20996 1.07486 2.43932 1.71829 1.87169C2.36058 1.30305 3.23258 0.983887 4.1423 0.983887C8.10001 0.983887 16.1846 0.983887 20.1423 0.983887C21.052 0.983887 21.924 1.30305 22.5663 1.87169C23.2097 2.43932 23.5709 3.20996 23.5709 4.01394V5.02396ZM8.71372 8.05401V26.2343C8.71372 26.502 8.83372 26.7595 9.04858 26.9484C9.26229 27.1383 9.55372 27.2443 9.85658 27.2443H25.8566C26.1594 27.2443 26.4509 27.1383 26.6646 26.9484C26.8794 26.7595 26.9994 26.502 26.9994 26.2343V8.05401C26.9994 7.78635 26.8794 7.5288 26.6646 7.33993C26.4509 7.15004 26.1594 7.04399 25.8566 7.04399H9.85658C9.55372 7.04399 9.26229 7.15004 9.04858 7.33993C8.83372 7.5288 8.71372 7.78635 8.71372 8.05401ZM6.42801 23.2043H4.1423C3.83944 23.2043 3.54801 23.0982 3.3343 22.9083C3.11944 22.7195 2.99944 22.4619 2.99944 22.1943V4.01394C2.99944 3.74628 3.11944 3.48873 3.3343 3.29986C3.54801 3.10997 3.83944 3.00392 4.1423 3.00392H20.1423C20.4452 3.00392 20.7366 3.10997 20.9503 3.29986C21.1652 3.48873 21.2852 3.74628 21.2852 4.01394V5.02396H9.85658C8.94687 5.02396 8.07487 5.34312 7.43258 5.91176C6.78915 6.47939 6.42801 7.25003 6.42801 8.05401V23.2043Z" fill="currentColor"/>
</svg>
