<svg width="40" height="24" viewBox="0 0 40 24" fill="none" xmlns="http://www.w3.org/2000/svg">
<g clip-path="url(#clip0_3790_1236)">
<path d="M16.9785 12.8901C17.9016 12.8901 18.7423 13.2527 19.4016 13.8296C18.7093 14.6043 18.2642 15.6098 18.2478 16.7307C18.2148 19.1703 20.1763 21.1977 22.6159 21.2307L32.4566 21.3791C34.8961 21.412 36.9236 19.4505 36.9566 17.0109C36.9895 14.5714 35.028 12.5439 32.5884 12.5109L23.3412 12.3791C22.6818 11.4065 21.8247 10.5824 20.8027 9.98896C21.4291 9.80764 22.1049 9.72522 22.7807 9.72522L32.6214 9.87357C36.5115 9.9395 39.6434 13.1538 39.5774 17.0439C39.5115 20.934 36.2972 24.0659 32.4071 23.9999L22.5664 23.8516C18.6763 23.7857 15.5445 20.5714 15.6104 16.6813C15.6269 15.2802 16.0719 13.978 16.7972 12.8736H16.9785V12.8901Z" fill="#E52926"/>
<path d="M23.9676 16.7803C23.9511 18.1649 23.5226 19.4671 22.7973 20.555H22.616C21.6929 20.555 20.8522 20.1924 20.1929 19.6319C20.8687 18.8572 21.2973 17.8682 21.3138 16.7638C21.3467 14.3242 19.3852 12.2968 16.9456 12.2638L7.10498 12.1154C4.66542 12.0825 2.63794 14.044 2.60498 16.4836C2.57201 18.9231 4.53355 20.9506 6.97311 20.9836L16.2533 21.1154C16.9127 22.088 17.7863 22.8957 18.7918 23.4891C18.1489 23.6704 17.4731 23.7693 16.7643 23.7528L6.92366 23.6045C3.06651 23.5385 -0.0488699 20.3077 0.000580659 16.4176C0.0500312 12.5275 3.2808 9.39566 7.17091 9.46159L17.0116 9.60995C20.9017 9.67588 24.0335 12.8902 23.9676 16.7803Z" fill="#E52926"/>
<path d="M29.5392 7.31868C31.5602 7.31868 33.1986 5.68034 33.1986 3.65934C33.1986 1.63834 31.5602 0 29.5392 0C27.5182 0 25.8799 1.63834 25.8799 3.65934C25.8799 5.68034 27.5182 7.31868 29.5392 7.31868Z" fill="#E52926"/>
<path d="M11.9836 7.31868C14.0046 7.31868 15.6429 5.68034 15.6429 3.65934C15.6429 1.63834 14.0046 0 11.9836 0C9.96256 0 8.32422 1.63834 8.32422 3.65934C8.32422 5.68034 9.96256 7.31868 11.9836 7.31868Z" fill="#E52926"/>
</g>
<defs>
<clipPath id="clip0_3790_1236">
<rect width="39.5769" height="24" fill="white"/>
</clipPath>
</defs>
</svg>
