<svg width="117" height="35" viewBox="0 0 117 35" fill="none" xmlns="http://www.w3.org/2000/svg">
<path d="M11.281 15.0755C11.281 15.9433 11.5703 16.6664 12.1488 17.2449C12.7273 16.5218 13.595 16.2325 14.6074 16.2325C16.7767 16.0879 18.5122 17.8234 18.5122 19.9927L18.6568 28.6701C18.8014 30.8394 17.066 32.5749 14.8966 32.5749C12.7273 32.5749 10.9918 30.8394 10.9918 28.8147L10.8472 20.5712C9.97943 19.9927 9.25632 19.2696 8.67782 18.4019C8.58141 18.9803 8.5332 19.5588 8.5332 20.1373L8.67782 28.8147C8.67782 32.141 11.4257 34.8889 14.8966 34.8889C18.3676 34.8889 21.1154 31.9964 20.9708 28.6701L20.8262 19.9927C20.8262 16.5218 18.0783 13.7739 14.6074 13.9185C13.3058 13.9185 12.1488 14.2078 11.281 14.9309V15.0755Z" fill="#E52926"/>
<path d="M14.6076 21.15C15.9092 21.15 17.0661 20.8608 17.9339 20.1377V19.993C17.9339 19.2699 17.6446 18.4022 17.2108 17.9683C16.4877 18.5468 15.6199 18.836 14.6076 18.836C12.4382 18.9807 10.7027 17.2452 10.7027 15.0758L10.5581 6.39847C10.5581 4.22912 12.2936 2.49365 14.4629 2.49365C16.4876 2.49365 18.3677 4.22913 18.3677 6.25385L18.5124 14.4974C19.3801 15.0758 20.055 15.799 20.5371 16.6667C20.7299 16.0882 20.8263 15.5097 20.8263 14.9312L20.6817 6.25385C20.5371 2.92752 17.7893 0.179688 14.3183 0.179688C10.992 0.179688 8.24414 3.07214 8.24414 6.39847L8.38877 15.0758C8.38877 18.5468 11.2812 21.2946 14.6076 21.15Z" fill="#E52926"/>
<path d="M3.18171 22.8843C4.91718 22.8843 6.36341 24.3305 6.36341 26.066C6.36341 27.8015 4.91718 29.2477 3.18171 29.2477C1.44623 29.2477 0 27.8015 0 26.066C0 24.3305 1.44623 22.8843 3.18171 22.8843Z" fill="#E52926"/>
<path d="M3.18171 7.41064C4.91718 7.41064 6.36341 8.85687 6.36341 10.737C6.36341 12.4724 4.91718 13.9187 3.18171 13.9187C1.44623 13.9187 0 12.4724 0 10.737C0 8.85687 1.44623 7.41064 3.18171 7.41064Z" fill="#E52926"/>
<path d="M36.1554 13.0515V15.6547C35.5769 15.9439 34.9502 16.185 34.2753 16.3778C33.6004 16.5706 32.9255 16.667 32.2506 16.667C30.1295 16.667 28.4422 16.0885 27.1888 14.9316C26.0318 13.6782 25.4533 12.0391 25.4533 10.0144C25.4533 7.98966 26.0318 6.39881 27.1888 5.24183C28.4422 4.08485 30.1295 3.50635 32.2506 3.50635C32.9255 3.50635 33.6004 3.60277 34.2753 3.7956C34.9502 3.89202 35.5769 4.08484 36.1554 4.37408V7.12192C35.5769 6.63985 34.9984 6.3024 34.4199 6.10957C33.8414 5.91674 33.2147 5.82031 32.5398 5.82031C31.3828 5.82031 30.4669 6.20598 29.792 6.9773C29.1171 7.74862 28.7796 8.76098 28.7796 10.0144C28.7796 11.3642 29.1171 12.4248 29.792 13.1961C30.4669 13.871 31.3828 14.2085 32.5398 14.2085C33.2147 14.2085 33.8414 14.112 34.4199 13.9192C34.9984 13.7264 35.5769 13.4371 36.1554 13.0515ZM47.2914 16.3778L46.5683 14.0638H41.5065L40.6387 16.3778H37.3124L42.0849 3.7956H45.9898L50.6177 16.3778H47.2914ZM43.965 6.68806L42.2296 11.7499H45.7005L43.965 6.68806ZM52.2086 16.3778V3.65097H56.4026L59.2951 10.4483L62.1875 3.65097H66.3816V16.3778H63.1999V7.12192L60.3075 13.9192H58.2827L55.3903 7.12192V16.3778H52.2086ZM69.4187 16.3778V3.65097H74.9144C76.457 3.65097 77.6622 4.03663 78.5299 4.80796C79.3977 5.48286 79.8316 6.49522 79.8316 7.84504C79.8316 9.19485 79.3977 10.2072 78.5299 10.8821C77.6622 11.557 76.457 11.8945 74.9144 11.8945H72.745V16.3778H69.4187ZM74.4805 6.10957H72.6004V9.58052H74.4805C75.059 9.58052 75.5411 9.43589 75.9267 9.14665C76.216 8.8574 76.3606 8.42353 76.3606 7.84504C76.3606 7.26655 76.216 6.83267 75.9267 6.54343C75.5411 6.25418 75.059 6.10957 74.4805 6.10957ZM82.1455 11.316V3.65097H85.3272V11.316C85.3272 12.3766 85.5201 13.0997 85.9057 13.4853C86.195 13.9674 86.7252 14.2085 87.4966 14.2085C88.2679 14.2085 88.8464 13.9674 89.232 13.4853C89.5213 13.0997 89.6659 12.3766 89.6659 11.316V3.65097H92.9922V11.316C92.9922 13.0515 92.5584 14.3531 91.6906 15.2208C90.7265 16.185 89.3285 16.667 87.4966 16.667C85.6647 16.667 84.3149 16.185 83.4471 15.2208C82.5794 14.3531 82.1455 13.0515 82.1455 11.316ZM104.996 4.08484V6.83268C104.321 6.44702 103.646 6.20598 102.971 6.10957C102.296 5.91674 101.67 5.82031 101.091 5.82031C100.32 5.82031 99.7413 5.91674 99.3557 6.10957C98.97 6.39881 98.7772 6.73626 98.7772 7.12192C98.7772 7.50758 98.9218 7.79683 99.211 7.98966C99.4039 8.18249 99.8377 8.32712 100.513 8.42353L101.959 8.71277C103.309 9.00202 104.273 9.43589 104.851 10.0144C105.526 10.5929 105.864 11.4124 105.864 12.473C105.864 13.8228 105.43 14.8352 104.562 15.5101C103.694 16.2814 102.441 16.667 100.802 16.667C100.031 16.667 99.211 16.5706 98.3433 16.3778C97.572 16.185 96.7524 15.9439 95.8847 15.6547V12.9068C96.7524 13.3889 97.572 13.7264 98.3433 13.9192C99.0182 14.112 99.7413 14.2085 100.513 14.2085C101.188 14.2085 101.718 14.112 102.103 13.9192C102.489 13.63 102.682 13.2925 102.682 12.9068C102.682 12.5212 102.537 12.1837 102.248 11.8945C102.055 11.7017 101.573 11.5088 100.802 11.316L99.5003 11.0267C98.2469 10.8339 97.3309 10.4 96.7524 9.72514C96.174 9.14665 95.8847 8.37533 95.8847 7.41117C95.8847 6.15778 96.2704 5.19362 97.0417 4.51872C97.813 3.84381 98.97 3.50635 100.513 3.50635C101.284 3.50635 102.007 3.55455 102.682 3.65097C103.453 3.74738 104.225 3.89201 104.996 4.08484ZM36.0108 27.5138V30.117C35.3359 30.4062 34.7092 30.6473 34.1307 30.8401C33.4558 31.0329 32.7809 31.1293 32.106 31.1293C29.9848 31.1293 28.2976 30.5026 27.0442 29.2492C25.7908 28.0922 25.1641 26.5014 25.1641 24.4767C25.1641 22.452 25.7908 20.8611 27.0442 19.7041C28.2976 18.5471 29.9848 17.9686 32.106 17.9686C32.7809 17.9686 33.4558 18.0169 34.1307 18.1133C34.7092 18.3061 35.3359 18.5471 36.0108 18.8364V21.4396C35.3359 21.0539 34.7092 20.7647 34.1307 20.5719C33.5522 20.379 32.9255 20.2826 32.2506 20.2826C31.0936 20.2826 30.1777 20.6683 29.5028 21.4396C28.9243 22.2109 28.635 23.2233 28.635 24.4767C28.635 25.8265 28.9243 26.8389 29.5028 27.5138C30.1777 28.2851 31.0936 28.6707 32.2506 28.6707C32.9255 28.6707 33.5522 28.5743 34.1307 28.3815C34.7092 28.1887 35.3359 27.8994 36.0108 27.5138ZM44.3989 20.2826C43.4348 20.2826 42.6634 20.6683 42.0849 21.4396C41.6029 22.1145 41.3618 23.1269 41.3618 24.4767C41.3618 25.8265 41.6029 26.8871 42.0849 27.6584C42.6634 28.3333 43.4348 28.6707 44.3989 28.6707C45.4595 28.6707 46.2308 28.3333 46.7129 27.6584C47.2914 26.8871 47.5806 25.8265 47.5806 24.4767C47.5806 23.1269 47.2914 22.1145 46.7129 21.4396C46.2308 20.6683 45.4595 20.2826 44.3989 20.2826ZM44.3989 17.9686C46.4236 17.9686 48.0145 18.5471 49.1715 19.7041C50.3285 20.8611 50.907 22.452 50.907 24.4767C50.907 26.5014 50.3285 28.0922 49.1715 29.2492C48.0145 30.5026 46.4236 31.1293 44.3989 31.1293C42.3742 31.1293 40.7833 30.5026 39.6264 29.2492C38.4694 28.0922 37.8909 26.5014 37.8909 24.4767C37.8909 22.452 38.4694 20.8611 39.6264 19.7041C40.7833 18.5471 42.3742 17.9686 44.3989 17.9686ZM53.3655 30.8401V18.1133H57.1257L61.6091 26.7906V18.1133H64.7908V30.8401H61.1752L56.5472 22.1627V30.8401H53.3655ZM67.8278 30.8401V18.1133H71.4434L76.0713 26.7906V18.1133H79.2531V30.8401H75.4929L71.0095 22.1627V30.8401H67.8278ZM82.2901 30.8401V18.1133H91.1121V20.5719H85.6165V23.0305H90.8229V25.489H85.6165V28.3815H91.2568V30.8401H82.2901ZM104.273 27.5138V30.117C103.598 30.4062 102.971 30.6473 102.393 30.8401C101.718 31.0329 100.995 31.1293 100.223 31.1293C98.1987 31.1293 96.5596 30.5026 95.3062 29.2492C94.0528 28.0922 93.4261 26.5014 93.4261 24.4767C93.4261 22.452 94.0528 20.8611 95.3062 19.7041C96.5596 18.5471 98.1987 17.9686 100.223 17.9686C100.995 17.9686 101.718 18.0169 102.393 18.1133C102.971 18.3061 103.598 18.5471 104.273 18.8364V21.4396C103.598 21.0539 102.971 20.7647 102.393 20.5719C101.814 20.379 101.188 20.2826 100.513 20.2826C99.3557 20.2826 98.4397 20.6683 97.7648 21.4396C97.0899 22.2109 96.7524 23.2233 96.7524 24.4767C96.7524 25.8265 97.0899 26.8389 97.7648 27.5138C98.4397 28.2851 99.3557 28.6707 100.513 28.6707C101.188 28.6707 101.814 28.5743 102.393 28.3815C102.971 28.1887 103.598 27.8994 104.273 27.5138ZM105.43 20.5719V18.1133H117V20.5719H112.806V30.8401H109.624V20.5719H105.43Z" fill="#E52926"/>
</svg>
