<svg width="81" height="24" viewBox="0 0 81 24" fill="none" xmlns="http://www.w3.org/2000/svg">
<path d="M7.80003 10.2999C7.80003 10.8999 8.00002 11.3999 8.40002 11.7999C8.80003 11.2999 9.40003 11.0999 10.1 11.0999C11.6 10.9999 12.8 12.1999 12.8 13.6999L12.9 19.6999C13 21.1999 11.8 22.3999 10.3 22.3999C8.80003 22.3999 7.60003 21.1999 7.60003 19.7999L7.50002 14.0999C6.90002 13.6999 6.40002 13.1999 6.00002 12.5999C5.93336 12.9999 5.90002 13.3999 5.90002 13.7999L6.00002 19.7999C6.00002 22.0999 7.90003 23.9999 10.3 23.9999C12.7 23.9999 14.6 21.9999 14.5 19.6999L14.4 13.6999C14.4 11.2999 12.5 9.39987 10.1 9.49987C9.20003 9.49987 8.40003 9.69986 7.80003 10.1999V10.2999Z" fill="white"/>
<path d="M10.1 14.5C11 14.5 11.8 14.3 12.4 13.8V13.7C12.4 13.2 12.2 12.6 11.9 12.3C11.4 12.7 10.8 12.9 10.1 12.9C8.59995 13 7.39995 11.8 7.39995 10.3L7.29995 4.3C7.29995 2.8 8.49995 1.6 9.99995 1.6C11.4 1.6 12.7 2.8 12.7 4.2L12.8 9.89999C13.4 10.3 13.8666 10.8 14.2 11.4C14.3333 11 14.4 10.6 14.4 10.2L14.3 4.2C14.2 1.9 12.3 0 9.89995 0C7.59995 0 5.69995 2 5.69995 4.3L5.79995 10.3C5.79995 12.7 7.79995 14.6 10.1 14.5Z" fill="white"/>
<path d="M2.2 15.6992C3.4 15.6992 4.4 16.6992 4.4 17.8992C4.4 19.0992 3.4 20.0992 2.2 20.0992C1 20.0992 0 19.0992 0 17.8992C0 16.6992 1 15.6992 2.2 15.6992Z" fill="white"/>
<path d="M2.2 5C3.4 5 4.4 6 4.4 7.3C4.4 8.5 3.4 9.5 2.2 9.5C1 9.5 0 8.5 0 7.3C0 6 1 5 2.2 5Z" fill="white"/>
<path d="M25.0001 8.90066V10.7007C24.6001 10.9007 24.1668 11.0673 23.7001 11.2007C23.2334 11.334 22.7668 11.4007 22.3001 11.4007C20.8334 11.4007 19.6668 11.0007 18.8001 10.2007C18.0001 9.334 17.6001 8.20066 17.6001 6.80066C17.6001 5.40066 18.0001 4.30066 18.8001 3.50066C19.6668 2.70066 20.8334 2.30066 22.3001 2.30066C22.7668 2.30066 23.2334 2.36733 23.7001 2.50066C24.1668 2.56733 24.6001 2.70066 25.0001 2.90066V4.80066C24.6001 4.46733 24.2001 4.234 23.8001 4.10066C23.4001 3.96733 22.9668 3.90066 22.5001 3.90066C21.7001 3.90066 21.0667 4.16733 20.6001 4.70066C20.1334 5.23399 19.9001 5.93399 19.9001 6.80066C19.9001 7.73399 20.1334 8.46733 20.6001 9.00067C21.0667 9.46733 21.7001 9.70066 22.5001 9.70066C22.9668 9.70066 23.4001 9.634 23.8001 9.50067C24.2001 9.36733 24.6001 9.16733 25.0001 8.90066ZM32.7001 11.2007L32.2001 9.60066H28.7001L28.1001 11.2007H25.8001L29.1001 2.50066H31.8001L35.0001 11.2007H32.7001ZM30.4001 4.50066L29.2001 8.00067H31.6001L30.4001 4.50066ZM36.1001 11.2007V2.40066H39.0001L41.0001 7.10066L43.0001 2.40066H45.9001V11.2007H43.7001V4.80066L41.7001 9.50067H40.3001L38.3001 4.80066V11.2007H36.1001ZM48.0001 11.2007V2.40066H51.8001C52.8668 2.40066 53.7001 2.66733 54.3001 3.20066C54.9001 3.66733 55.2001 4.36733 55.2001 5.30066C55.2001 6.23399 54.9001 6.93399 54.3001 7.40066C53.7001 7.86733 52.8668 8.10066 51.8001 8.10066H50.3001V11.2007H48.0001ZM51.5001 4.10066H50.2001V6.50066H51.5001C51.9001 6.50066 52.2334 6.40066 52.5001 6.20066C52.7001 6.00066 52.8001 5.70066 52.8001 5.30066C52.8001 4.90066 52.7001 4.60066 52.5001 4.40066C52.2334 4.20066 51.9001 4.10066 51.5001 4.10066ZM56.8001 7.70066V2.40066H59.0001V7.70066C59.0001 8.434 59.1334 8.934 59.4001 9.20066C59.6001 9.534 59.9668 9.70066 60.5001 9.70066C61.0334 9.70066 61.4334 9.534 61.7001 9.20066C61.9001 8.934 62.0001 8.434 62.0001 7.70066V2.40066H64.3001V7.70066C64.3001 8.90066 64.0001 9.80066 63.4001 10.4007C62.7334 11.0673 61.7668 11.4007 60.5001 11.4007C59.2334 11.4007 58.3001 11.0673 57.7001 10.4007C57.1001 9.80066 56.8001 8.90066 56.8001 7.70066ZM72.6001 2.70066V4.60066C72.1334 4.334 71.6668 4.16733 71.2001 4.10066C70.7334 3.96733 70.3001 3.90066 69.9001 3.90066C69.3668 3.90066 68.9668 3.96733 68.7001 4.10066C68.4334 4.30066 68.3001 4.53399 68.3001 4.80066C68.3001 5.06733 68.4001 5.26732 68.6001 5.40066C68.7334 5.53399 69.0334 5.63399 69.5001 5.70066L70.5001 5.90066C71.4334 6.10066 72.1001 6.40066 72.5001 6.80066C72.9668 7.20066 73.2001 7.76733 73.2001 8.50067C73.2001 9.434 72.9001 10.134 72.3001 10.6007C71.7001 11.134 70.8334 11.4007 69.7001 11.4007C69.1668 11.4007 68.6001 11.334 68.0001 11.2007C67.4668 11.0673 66.9001 10.9007 66.3001 10.7007V8.80066C66.9001 9.13399 67.4668 9.36733 68.0001 9.50067C68.4668 9.634 68.9668 9.70066 69.5001 9.70066C69.9668 9.70066 70.3334 9.634 70.6001 9.50067C70.8668 9.30067 71.0001 9.06733 71.0001 8.80066C71.0001 8.53399 70.9001 8.30066 70.7001 8.10066C70.5668 7.96733 70.2334 7.834 69.7001 7.70066L68.8001 7.50067C67.9334 7.36733 67.3001 7.06733 66.9001 6.60066C66.5001 6.20066 66.3001 5.66733 66.3001 5.00066C66.3001 4.134 66.5668 3.46733 67.1001 3.00066C67.6334 2.534 68.4334 2.30066 69.5001 2.30066C70.0334 2.30066 70.5334 2.33399 71.0001 2.40066C71.5334 2.46732 72.0668 2.56733 72.6001 2.70066ZM24.9001 18.9007V20.7007C24.4334 20.9007 24.0001 21.0673 23.6001 21.2007C23.1334 21.334 22.6668 21.4007 22.2001 21.4007C20.7334 21.4007 19.5668 20.9673 18.7001 20.1007C17.8334 19.3007 17.4001 18.2007 17.4001 16.8007C17.4001 15.4007 17.8334 14.3007 18.7001 13.5007C19.5668 12.7007 20.7334 12.3007 22.2001 12.3007C22.6668 12.3007 23.1334 12.334 23.6001 12.4007C24.0001 12.534 24.4334 12.7007 24.9001 12.9007V14.7007C24.4334 14.434 24.0001 14.234 23.6001 14.1007C23.2001 13.9673 22.7668 13.9007 22.3001 13.9007C21.5001 13.9007 20.8668 14.1673 20.4001 14.7007C20.0001 15.234 19.8001 15.934 19.8001 16.8007C19.8001 17.734 20.0001 18.434 20.4001 18.9007C20.8668 19.434 21.5001 19.7007 22.3001 19.7007C22.7668 19.7007 23.2001 19.634 23.6001 19.5007C24.0001 19.3673 24.4334 19.1673 24.9001 18.9007ZM30.7001 13.9007C30.0334 13.9007 29.5001 14.1673 29.1001 14.7007C28.7668 15.1673 28.6001 15.8673 28.6001 16.8007C28.6001 17.734 28.7668 18.4673 29.1001 19.0007C29.5001 19.4673 30.0334 19.7007 30.7001 19.7007C31.4334 19.7007 31.9668 19.4673 32.3001 19.0007C32.7001 18.4673 32.9001 17.734 32.9001 16.8007C32.9001 15.8673 32.7001 15.1673 32.3001 14.7007C31.9668 14.1673 31.4334 13.9007 30.7001 13.9007ZM30.7001 12.3007C32.1001 12.3007 33.2001 12.7007 34.0001 13.5007C34.8001 14.3007 35.2001 15.4007 35.2001 16.8007C35.2001 18.2007 34.8001 19.3007 34.0001 20.1007C33.2001 20.9673 32.1001 21.4007 30.7001 21.4007C29.3001 21.4007 28.2001 20.9673 27.4001 20.1007C26.6001 19.3007 26.2001 18.2007 26.2001 16.8007C26.2001 15.4007 26.6001 14.3007 27.4001 13.5007C28.2001 12.7007 29.3001 12.3007 30.7001 12.3007ZM36.9001 21.2007V12.4007H39.5001L42.6001 18.4007V12.4007H44.8001V21.2007H42.3001L39.1001 15.2007V21.2007H36.9001ZM46.9001 21.2007V12.4007H49.4001L52.6001 18.4007V12.4007H54.8001V21.2007H52.2001L49.1001 15.2007V21.2007H46.9001ZM56.9001 21.2007V12.4007H63.0001V14.1007H59.2001V15.8007H62.8001V17.5007H59.2001V19.5007H63.1001V21.2007H56.9001ZM72.1001 18.9007V20.7007C71.6334 20.9007 71.2001 21.0673 70.8001 21.2007C70.3334 21.334 69.8334 21.4007 69.3001 21.4007C67.9001 21.4007 66.7668 20.9673 65.9001 20.1007C65.0334 19.3007 64.6001 18.2007 64.6001 16.8007C64.6001 15.4007 65.0334 14.3007 65.9001 13.5007C66.7668 12.7007 67.9001 12.3007 69.3001 12.3007C69.8334 12.3007 70.3334 12.334 70.8001 12.4007C71.2001 12.534 71.6334 12.7007 72.1001 12.9007V14.7007C71.6334 14.434 71.2001 14.234 70.8001 14.1007C70.4001 13.9673 69.9668 13.9007 69.5001 13.9007C68.7001 13.9007 68.0668 14.1673 67.6001 14.7007C67.1334 15.234 66.9001 15.934 66.9001 16.8007C66.9001 17.734 67.1334 18.434 67.6001 18.9007C68.0668 19.434 68.7001 19.7007 69.5001 19.7007C69.9668 19.7007 70.4001 19.634 70.8001 19.5007C71.2001 19.3673 71.6334 19.1673 72.1001 18.9007ZM72.9001 14.1007V12.4007H80.9001V14.1007H78.0001V21.2007H75.8001V14.1007H72.9001Z" fill="white"/>
</svg>
