<svg width="25" height="24" viewBox="0 0 25 24" fill="none" xmlns="http://www.w3.org/2000/svg">
<path d="M9.46721 2.65778C7.4689 3.35101 5.74556 4.66679 4.55032 6.41184C3.35508 8.1569 2.75095 10.2393 2.82665 12.353C2.90236 14.4668 3.65391 16.5006 4.97092 18.1557C6.28794 19.8108 8.10099 20.9999 10.1438 21.5484C11.7999 21.9757 13.535 21.9945 15.2 21.6031C16.7083 21.2643 18.1028 20.5396 19.2469 19.5C20.4376 18.3849 21.302 16.9663 21.7469 15.3968C22.2304 13.69 22.3164 11.8952 21.9985 10.15H12.6985V14.0078H18.0844C17.9768 14.6231 17.7461 15.2103 17.4062 15.7344C17.0663 16.2585 16.6242 16.7086 16.1063 17.0578C15.4487 17.493 14.7073 17.7857 13.9297 17.9172C13.1499 18.0622 12.3501 18.0622 11.5703 17.9172C10.7799 17.7539 10.0323 17.4277 9.37502 16.9593C8.319 16.2118 7.52608 15.1498 7.1094 13.925C6.68579 12.6771 6.68579 11.3244 7.1094 10.0765C7.406 9.20187 7.89632 8.40549 8.54377 7.74684C9.2847 6.97926 10.2227 6.43059 11.255 6.16102C12.2872 5.89146 13.3737 5.91142 14.3953 6.21872C15.1935 6.4636 15.9233 6.89165 16.5266 7.46872C17.1339 6.86455 17.7401 6.25882 18.3453 5.65153C18.6578 5.32497 18.9985 5.01403 19.3063 4.67965C18.3852 3.82265 17.3042 3.15575 16.125 2.71715C13.9777 1.93745 11.6281 1.9165 9.46721 2.65778Z" fill="#2486FD"/>
<path d="M9.46758 2.65781C11.6283 1.91602 13.9779 1.93642 16.1254 2.71562C17.3048 3.1572 18.3853 3.82731 19.3051 4.68749C18.9926 5.02187 18.6629 5.33437 18.3441 5.65937C17.7379 6.26458 17.1322 6.8677 16.527 7.46874C15.9237 6.89168 15.1938 6.46362 14.3957 6.21874C13.3744 5.91037 12.2879 5.88926 11.2554 6.15772C10.2229 6.42618 9.28432 6.97384 8.54258 7.74062C7.89513 8.39927 7.40481 9.19564 7.1082 10.0703L3.86914 7.56249C5.02853 5.26337 7.03594 3.50472 9.46758 2.65781Z" fill="#E52926"/>
<path d="M3.00918 10.0469C3.18314 9.18402 3.47218 8.34843 3.86855 7.5625L7.10761 10.0766C6.684 11.3244 6.684 12.6772 7.10761 13.925C6.02845 14.7583 4.94876 15.5958 3.86855 16.4375C2.8766 14.463 2.57407 12.2133 3.00918 10.0469Z" fill="#F8BD00"/>
<path d="M12.698 10.1484H21.998C22.3159 11.8937 22.2299 13.6885 21.7464 15.3953C21.3015 16.9648 20.4371 18.3834 19.2464 19.4984C18.2011 18.6828 17.1511 17.8734 16.1058 17.0578C16.624 16.7082 17.0663 16.2576 17.4063 15.733C17.7462 15.2084 17.9766 14.6205 18.0839 14.0047H12.698C12.6964 12.7203 12.698 11.4344 12.698 10.1484Z" fill="#587DBD"/>
<path d="M3.86719 16.4375C4.9474 15.6042 6.02708 14.7667 7.10625 13.925C7.52376 15.1504 8.31782 16.2124 9.375 16.9594C10.0343 17.4256 10.7836 17.7492 11.575 17.9094C12.3548 18.0545 13.1546 18.0545 13.9344 17.9094C14.7119 17.778 15.4533 17.4853 16.1109 17.05C17.1562 17.8657 18.2063 18.675 19.2516 19.4907C18.1076 20.5309 16.7132 21.2561 15.2047 21.5954C13.5397 21.9868 11.8046 21.968 10.1484 21.5407C8.8386 21.1909 7.61512 20.5744 6.55469 19.7297C5.43239 18.8385 4.51568 17.7156 3.86719 16.4375Z" fill="#319F43"/>
</svg>
