<svg width="135" height="41" viewBox="0 0 135 41" fill="none" xmlns="http://www.w3.org/2000/svg">
<path d="M12.9998 17.5224C12.9998 18.5224 13.3331 19.3557 13.9998 20.0224C14.6664 19.1891 15.6664 18.8558 16.8331 18.8558C19.333 18.6891 21.333 20.689 21.333 23.189L21.4996 33.1888C21.6663 35.6887 19.6663 37.6887 17.1664 37.6887C14.6664 37.6887 12.6665 35.6887 12.6665 33.3554L12.4998 23.8556C11.4998 23.189 10.6665 22.3557 9.99987 21.3557C9.88877 22.0224 9.83321 22.689 9.83321 23.3557L9.99987 33.3554C9.99987 37.1887 13.1665 40.3553 17.1664 40.3553C21.1663 40.3553 24.3329 37.022 24.1662 33.1888L23.9996 23.189C23.9996 19.1891 20.833 16.0225 16.8331 16.1892C15.3331 16.1892 13.9998 16.5225 12.9998 17.3558V17.5224Z" fill="white"/>
<path d="M16.8331 24.5218C18.3331 24.5218 19.6664 24.1885 20.6664 23.3552V23.1885C20.6664 22.3552 20.333 21.3552 19.8331 20.8553C18.9997 21.5219 17.9998 21.8552 16.8331 21.8552C14.3332 22.0219 12.3332 20.0219 12.3332 17.522L12.1666 7.52221C12.1666 5.02227 14.1665 3.02232 16.6665 3.02232C18.9997 3.02232 21.1664 5.02227 21.1664 7.35555L21.333 16.8553C22.333 17.522 23.1108 18.3553 23.6663 19.3553C23.8885 18.6886 23.9996 18.022 23.9996 17.3553L23.833 7.35555C23.6663 3.5223 20.4997 0.355713 16.4998 0.355713C12.6665 0.355713 9.49995 3.68896 9.49995 7.52221L9.66661 17.522C9.66661 21.5219 12.9999 24.6885 16.8331 24.5218Z" fill="white"/>
<path d="M3.66673 26.5212C5.66668 26.5212 7.33331 28.1879 7.33331 30.1878C7.33331 32.1878 5.66668 33.8544 3.66673 33.8544C1.66677 33.8544 0.000141144 32.1878 0.000141144 30.1878C0.000141144 28.1879 1.66677 26.5212 3.66673 26.5212Z" fill="white"/>
<path d="M3.66673 8.68787C5.66668 8.68787 7.33331 10.3545 7.33331 12.5211C7.33331 14.5211 5.66668 16.1877 3.66673 16.1877C1.66677 16.1877 0.000141144 14.5211 0.000141144 12.5211C0.000141144 10.3545 1.66677 8.68787 3.66673 8.68787Z" fill="white"/>
<path d="M41.6656 15.1887V18.1887C40.999 18.522 40.2768 18.7998 39.499 19.022C38.7212 19.2442 37.9435 19.3553 37.1657 19.3553C34.7213 19.3553 32.7769 18.6886 31.3325 17.3553C29.9992 15.9109 29.3325 14.0221 29.3325 11.6888C29.3325 9.35552 29.9992 7.52223 31.3325 6.18893C32.7769 4.85562 34.7213 4.18896 37.1657 4.18896C37.9435 4.18896 38.7212 4.30008 39.499 4.5223C40.2768 4.63341 40.999 4.85561 41.6656 5.18894V8.35554C40.999 7.8 40.3323 7.41112 39.6657 7.1889C38.999 6.96669 38.2768 6.85557 37.499 6.85557C36.1657 6.85557 35.1102 7.30001 34.3324 8.18888C33.5547 9.07775 33.1658 10.2444 33.1658 11.6888C33.1658 13.2443 33.5547 14.4665 34.3324 15.3554C35.1102 16.1332 36.1657 16.522 37.499 16.522C38.2768 16.522 38.999 16.4109 39.6657 16.1887C40.3323 15.9665 40.999 15.6332 41.6656 15.1887ZM54.4987 19.022L53.6653 16.3554H47.8321L46.8322 19.022H42.9989L48.4988 4.5223H52.9987L58.3319 19.022H54.4987ZM50.6654 7.85556L48.6655 13.6888H52.6654L50.6654 7.85556ZM60.1652 19.022V4.35563H64.9984L68.3317 12.1888L71.6649 4.35563H76.4982V19.022H72.8316V8.35554L69.4983 16.1887H67.165L63.8318 8.35554V19.022H60.1652ZM79.9981 19.022V4.35563H86.3313C88.109 4.35563 89.4979 4.80006 90.4979 5.68893C91.4978 6.46669 91.9978 7.63333 91.9978 9.18885C91.9978 10.7444 91.4978 11.911 90.4979 12.6888C89.4979 13.4665 88.109 13.8554 86.3313 13.8554H83.8313V19.022H79.9981ZM85.8313 7.1889H83.6647V11.1888H85.8313C86.4979 11.1888 87.0535 11.0221 87.4979 10.6888C87.8312 10.3555 87.9979 9.85551 87.9979 9.18885C87.9979 8.5222 87.8312 8.02221 87.4979 7.68888C87.0535 7.35556 86.4979 7.1889 85.8313 7.1889ZM94.6644 13.1888V4.35563H98.331V13.1888C98.331 14.411 98.5532 15.2443 98.9977 15.6887C99.331 16.2443 99.9421 16.522 100.831 16.522C101.72 16.522 102.386 16.2443 102.831 15.6887C103.164 15.2443 103.331 14.411 103.331 13.1888V4.35563H107.164V13.1888C107.164 15.1887 106.664 16.6887 105.664 17.6887C104.553 18.7998 102.942 19.3553 100.831 19.3553C98.7199 19.3553 97.1644 18.7998 96.1644 17.6887C95.1644 16.6887 94.6644 15.1887 94.6644 13.1888ZM120.997 4.85562V8.02222C120.219 7.57778 119.442 7.30001 118.664 7.1889C117.886 6.96669 117.164 6.85557 116.497 6.85557C115.608 6.85557 114.942 6.96669 114.497 7.1889C114.053 7.52223 113.831 7.9111 113.831 8.35554C113.831 8.79997 113.997 9.1333 114.331 9.35551C114.553 9.57773 115.053 9.7444 115.831 9.85551L117.497 10.1888C119.053 10.5222 120.164 11.0221 120.831 11.6888C121.608 12.3555 121.997 13.2999 121.997 14.5221C121.997 16.0776 121.497 17.2442 120.497 18.022C119.497 18.9109 118.053 19.3553 116.164 19.3553C115.275 19.3553 114.331 19.2442 113.331 19.022C112.442 18.7998 111.497 18.522 110.497 18.1887V15.0221C111.497 15.5776 112.442 15.9665 113.331 16.1887C114.108 16.4109 114.942 16.522 115.831 16.522C116.608 16.522 117.219 16.4109 117.664 16.1887C118.108 15.8554 118.331 15.4665 118.331 15.0221C118.331 14.5776 118.164 14.1887 117.831 13.8554C117.608 13.6332 117.053 13.411 116.164 13.1888L114.664 12.8554C113.22 12.6332 112.164 12.1332 111.497 11.3555C110.831 10.6888 110.497 9.79996 110.497 8.68887C110.497 7.24446 110.942 6.13337 111.831 5.35561C112.72 4.57785 114.053 4.18896 115.831 4.18896C116.719 4.18896 117.553 4.24452 118.331 4.35563C119.219 4.46673 120.108 4.6334 120.997 4.85562ZM41.4989 31.855V34.855C40.7212 35.1883 39.999 35.4661 39.3323 35.6883C38.5546 35.9105 37.7768 36.0216 36.999 36.0216C34.5547 36.0216 32.6103 35.2994 31.1658 33.855C29.7214 32.5217 28.9992 30.6884 28.9992 28.3551C28.9992 26.0218 29.7214 24.1885 31.1658 22.8552C32.6103 21.5219 34.5547 20.8553 36.999 20.8553C37.7768 20.8553 38.5546 20.9108 39.3323 21.0219C39.999 21.2441 40.7212 21.5219 41.4989 21.8552V24.8552C40.7212 24.4107 39.999 24.0774 39.3323 23.8552C38.6657 23.633 37.9435 23.5219 37.1657 23.5219C35.8324 23.5219 34.7769 23.9663 33.9991 24.8552C33.3325 25.744 32.9991 26.9107 32.9991 28.3551C32.9991 29.9106 33.3325 31.0773 33.9991 31.855C34.7769 32.7439 35.8324 33.1883 37.1657 33.1883C37.9435 33.1883 38.6657 33.0772 39.3323 32.855C39.999 32.6328 40.7212 32.2995 41.4989 31.855ZM51.1654 23.5219C50.0543 23.5219 49.1654 23.9663 48.4988 24.8552C47.9432 25.6329 47.6655 26.7996 47.6655 28.3551C47.6655 29.9106 47.9432 31.1328 48.4988 32.0217C49.1654 32.7995 50.0543 33.1883 51.1654 33.1883C52.3876 33.1883 53.2765 32.7995 53.832 32.0217C54.4987 31.1328 54.832 29.9106 54.832 28.3551C54.832 26.7996 54.4987 25.6329 53.832 24.8552C53.2765 23.9663 52.3876 23.5219 51.1654 23.5219ZM51.1654 20.8553C53.4987 20.8553 55.332 21.5219 56.6653 22.8552C57.9986 24.1885 58.6652 26.0218 58.6652 28.3551C58.6652 30.6884 57.9986 32.5217 56.6653 33.855C55.332 35.2994 53.4987 36.0216 51.1654 36.0216C48.8321 36.0216 46.9988 35.2994 45.6655 33.855C44.3322 32.5217 43.6656 30.6884 43.6656 28.3551C43.6656 26.0218 44.3322 24.1885 45.6655 22.8552C46.9988 21.5219 48.8321 20.8553 51.1654 20.8553ZM61.4985 35.6883V21.0219H65.8317L70.9983 31.0217V21.0219H74.6649V35.6883H70.4983L65.1651 25.6885V35.6883H61.4985ZM78.1648 35.6883V21.0219H82.3314L87.6646 31.0217V21.0219H91.3312V35.6883H86.9979L81.8314 25.6885V35.6883H78.1648ZM94.8311 35.6883V21.0219H104.998V23.8552H98.6643V26.6885H104.664V29.5217H98.6643V32.855H105.164V35.6883H94.8311ZM120.164 31.855V34.855C119.386 35.1883 118.664 35.4661 117.997 35.6883C117.219 35.9105 116.386 36.0216 115.497 36.0216C113.164 36.0216 111.275 35.2994 109.831 33.855C108.386 32.5217 107.664 30.6884 107.664 28.3551C107.664 26.0218 108.386 24.1885 109.831 22.8552C111.275 21.5219 113.164 20.8553 115.497 20.8553C116.386 20.8553 117.219 20.9108 117.997 21.0219C118.664 21.2441 119.386 21.5219 120.164 21.8552V24.8552C119.386 24.4107 118.664 24.0774 117.997 23.8552C117.331 23.633 116.608 23.5219 115.831 23.5219C114.497 23.5219 113.442 23.9663 112.664 24.8552C111.886 25.744 111.497 26.9107 111.497 28.3551C111.497 29.9106 111.886 31.0773 112.664 31.855C113.442 32.7439 114.497 33.1883 115.831 33.1883C116.608 33.1883 117.331 33.0772 117.997 32.855C118.664 32.6328 119.386 32.2995 120.164 31.855ZM121.497 23.8552V21.0219H134.83V23.8552H129.997V35.6883H126.33V23.8552H121.497Z" fill="white"/>
</svg>
