<svg width="75" height="25" viewBox="0 0 75 25" fill="none" xmlns="http://www.w3.org/2000/svg">
<path d="M7.19393 10.6545C7.19393 11.2545 7.37841 11.7545 7.74736 12.1545C8.11631 11.6545 8.66974 11.4545 9.31541 11.4545C10.699 11.3545 11.8058 12.5545 11.8058 14.0545L11.8981 20.0545C11.9903 21.5545 10.8835 22.7545 9.49989 22.7545C8.11632 22.7545 7.00946 21.5545 7.00946 20.1545L6.91722 14.4545C6.36379 14.0545 5.9026 13.5545 5.53364 12.9545C5.47215 13.3545 5.44141 13.7545 5.44141 14.1545L5.53364 20.1545C5.53364 22.4545 7.28617 24.3545 9.49989 24.3545C11.7136 24.3545 13.4661 22.3545 13.3739 20.0545L13.2817 14.0545C13.2817 11.6545 11.5291 9.75448 9.31541 9.85448C8.48527 9.85448 7.74736 10.0545 7.19393 10.5545V10.6545Z" fill="#E52926"/>
<path d="M9.3163 14.8546C10.1464 14.8546 10.8843 14.6546 11.4378 14.1546V14.0546C11.4378 13.5546 11.2533 12.9546 10.9766 12.6546C10.5154 13.0546 9.96196 13.2546 9.3163 13.2546C7.93272 13.3546 6.82586 12.1546 6.82586 10.6546L6.73363 4.65462C6.73363 3.15462 7.84048 1.95462 9.22406 1.95462C10.5154 1.95462 11.7145 3.15462 11.7145 4.55462L11.8067 10.2546C12.3602 10.6546 12.7906 11.1546 13.0981 11.7546C13.221 11.3546 13.2825 10.9546 13.2825 10.5546L13.1903 4.55462C13.0981 2.25462 11.3455 0.354614 9.13182 0.354614C7.01034 0.354614 5.25781 2.35461 5.25781 4.65462L5.35005 10.6546C5.35005 13.0546 7.19482 14.9546 9.3163 14.8546Z" fill="#E52926"/>
<path d="M2.02924 16.0538C3.1361 16.0538 4.05848 17.0538 4.05848 18.2538C4.05848 19.4538 3.1361 20.4538 2.02924 20.4538C0.922383 20.4538 0 19.4538 0 18.2538C0 17.0538 0.922383 16.0538 2.02924 16.0538Z" fill="#E52926"/>
<path d="M2.02924 5.35461C3.1361 5.35461 4.05848 6.35461 4.05848 7.65462C4.05848 8.85462 3.1361 9.85462 2.02924 9.85462C0.922383 9.85462 0 8.85462 0 7.65462C0 6.35461 0.922383 5.35461 2.02924 5.35461Z" fill="#E52926"/>
<path d="M23.0599 9.25492V11.0549C22.691 11.2549 22.2913 11.4216 21.8608 11.5549C21.4304 11.6883 20.9999 11.7549 20.5695 11.7549C19.2167 11.7549 18.1405 11.3549 17.3411 10.5549C16.6032 9.68826 16.2343 8.55492 16.2343 7.15492C16.2343 5.75491 16.6032 4.65492 17.3411 3.85491C18.1405 3.05491 19.2167 2.65491 20.5695 2.65491C20.9999 2.65491 21.4304 2.72158 21.8608 2.85491C22.2913 2.92158 22.691 3.05491 23.0599 3.25491V5.15491C22.691 4.82158 22.322 4.58825 21.9531 4.45491C21.5841 4.32158 21.1844 4.25491 20.754 4.25491C20.016 4.25491 19.4319 4.52158 19.0014 5.05491C18.571 5.58825 18.3558 6.28825 18.3558 7.15492C18.3558 8.08825 18.571 8.82159 19.0014 9.35493C19.4319 9.8216 20.016 10.0549 20.754 10.0549C21.1844 10.0549 21.5841 9.98826 21.9531 9.85493C22.322 9.7216 22.691 9.52159 23.0599 9.25492ZM30.1623 11.5549L29.7011 9.95493H26.4727L25.9193 11.5549H23.7978L26.8417 2.85491H29.3321L32.2837 11.5549H30.1623ZM28.0408 4.85492L26.9339 8.35493H29.1476L28.0408 4.85492ZM33.2983 11.5549V2.75491H35.9733L37.818 7.45492L39.6628 2.75491H42.3377V11.5549H40.3085V5.15491L38.4637 9.85493H37.1724L35.3276 5.15491V11.5549H33.2983ZM44.2747 11.5549V2.75491H47.7798C48.7636 2.75491 49.5323 3.02158 50.0857 3.55491C50.6391 4.02158 50.9159 4.72158 50.9159 5.65491C50.9159 6.58825 50.6391 7.28825 50.0857 7.75492C49.5323 8.22159 48.7636 8.45492 47.7798 8.45492H46.3962V11.5549H44.2747ZM47.503 4.45491H46.3039V6.85492H47.503C47.872 6.85492 48.1794 6.75492 48.4254 6.55492C48.6099 6.35492 48.7021 6.05492 48.7021 5.65491C48.7021 5.25491 48.6099 4.95491 48.4254 4.75491C48.1794 4.55491 47.872 4.45491 47.503 4.45491ZM52.3917 8.05492V2.75491H54.4209V8.05492C54.4209 8.78826 54.5439 9.28826 54.7899 9.55493C54.9743 9.88826 55.3125 10.0549 55.8045 10.0549C56.2964 10.0549 56.6654 9.88826 56.9113 9.55493C57.0958 9.28826 57.188 8.78826 57.188 8.05492V2.75491H59.3095V8.05492C59.3095 9.25492 59.0328 10.1549 58.4794 10.7549C57.8645 11.4216 56.9728 11.7549 55.8045 11.7549C54.6361 11.7549 53.7752 11.4216 53.2218 10.7549C52.6684 10.1549 52.3917 9.25492 52.3917 8.05492ZM66.9653 3.05491V4.95492C66.5349 4.68825 66.1044 4.52158 65.674 4.45491C65.2435 4.32158 64.8438 4.25491 64.4749 4.25491C63.9829 4.25491 63.614 4.32158 63.368 4.45491C63.122 4.65492 62.9991 4.88825 62.9991 5.15491C62.9991 5.42158 63.0913 5.62158 63.2758 5.75491C63.3988 5.88825 63.6755 5.98825 64.1059 6.05492L65.0283 6.25491C65.8892 6.45491 66.5041 6.75492 66.8731 7.15492C67.3035 7.55492 67.5187 8.12159 67.5187 8.85493C67.5187 9.78826 67.242 10.4883 66.6886 10.9549C66.1352 11.4883 65.3358 11.7549 64.2904 11.7549C63.7985 11.7549 63.2758 11.6883 62.7223 11.5549C62.2304 11.4216 61.7077 11.2549 61.1543 11.0549V9.15492C61.7077 9.48826 62.2304 9.7216 62.7223 9.85493C63.1528 9.98826 63.614 10.0549 64.1059 10.0549C64.5364 10.0549 64.8746 9.98826 65.1205 9.85493C65.3665 9.65493 65.4895 9.42159 65.4895 9.15492C65.4895 8.88826 65.3973 8.65492 65.2128 8.45492C65.0898 8.32159 64.7823 8.18826 64.2904 8.05492L63.4602 7.85492C62.6609 7.72159 62.0767 7.42159 61.7077 6.95492C61.3388 6.55492 61.1543 6.02159 61.1543 5.35492C61.1543 4.48825 61.4003 3.82158 61.8922 3.35491C62.3841 2.88825 63.122 2.65491 64.1059 2.65491C64.5978 2.65491 65.059 2.68824 65.4895 2.75491C65.9814 2.82157 66.4734 2.92158 66.9653 3.05491ZM22.9677 19.2549V21.055C22.5372 21.255 22.1375 21.4216 21.7686 21.555C21.3381 21.6883 20.9077 21.755 20.4772 21.755C19.1244 21.755 18.0483 21.3216 17.2489 20.4549C16.4495 19.6549 16.0498 18.555 16.0498 17.1549C16.0498 15.7549 16.4495 14.6549 17.2489 13.8549C18.0483 13.0549 19.1244 12.6549 20.4772 12.6549C20.9077 12.6549 21.3381 12.6883 21.7686 12.7549C22.1375 12.8883 22.5372 13.0549 22.9677 13.2549V15.0549C22.5372 14.7883 22.1375 14.5883 21.7686 14.4549C21.3996 14.3216 20.9999 14.2549 20.5695 14.2549C19.8316 14.2549 19.2474 14.5216 18.817 15.0549C18.448 15.5883 18.2635 16.2883 18.2635 17.1549C18.2635 18.0883 18.448 18.7883 18.817 19.2549C19.2474 19.7883 19.8316 20.055 20.5695 20.055C20.9999 20.055 21.3996 19.9883 21.7686 19.855C22.1375 19.7216 22.5372 19.5216 22.9677 19.2549ZM28.3175 14.2549C27.7026 14.2549 27.2106 14.5216 26.8417 15.0549C26.5342 15.5216 26.3805 16.2216 26.3805 17.1549C26.3805 18.0883 26.5342 18.8216 26.8417 19.355C27.2106 19.8216 27.7026 20.055 28.3175 20.055C28.9939 20.055 29.4858 19.8216 29.7933 19.355C30.1623 18.8216 30.3467 18.0883 30.3467 17.1549C30.3467 16.2216 30.1623 15.5216 29.7933 15.0549C29.4858 14.5216 28.9939 14.2549 28.3175 14.2549ZM28.3175 12.6549C29.6088 12.6549 30.6234 13.0549 31.3613 13.8549C32.0993 14.6549 32.4682 15.7549 32.4682 17.1549C32.4682 18.555 32.0993 19.6549 31.3613 20.4549C30.6234 21.3216 29.6088 21.755 28.3175 21.755C27.0262 21.755 26.0115 21.3216 25.2736 20.4549C24.5357 19.6549 24.1668 18.555 24.1668 17.1549C24.1668 15.7549 24.5357 14.6549 25.2736 13.8549C26.0115 13.0549 27.0262 12.6549 28.3175 12.6549ZM34.0363 21.555V12.7549H36.4344L39.2938 18.7549V12.7549H41.3231V21.555H39.0171L36.0655 15.5549V21.555H34.0363ZM43.2601 21.555V12.7549H45.566L48.5177 18.7549V12.7549H50.5469V21.555H48.1487L45.2893 15.5549V21.555H43.2601ZM52.4839 21.555V12.7549H58.1104V14.4549H54.6054V16.1549H57.926V17.8549H54.6054V19.855H58.2027V21.555H52.4839ZM66.5041 19.2549V21.055C66.0737 21.255 65.674 21.4216 65.305 21.555C64.8746 21.6883 64.4134 21.755 63.9214 21.755C62.6301 21.755 61.5847 21.3216 60.7853 20.4549C59.9859 19.6549 59.5862 18.555 59.5862 17.1549C59.5862 15.7549 59.9859 14.6549 60.7853 13.8549C61.5847 13.0549 62.6301 12.6549 63.9214 12.6549C64.4134 12.6549 64.8746 12.6883 65.305 12.7549C65.674 12.8883 66.0737 13.0549 66.5041 13.2549V15.0549C66.0737 14.7883 65.674 14.5883 65.305 14.4549C64.9361 14.3216 64.5364 14.2549 64.1059 14.2549C63.368 14.2549 62.7838 14.5216 62.3534 15.0549C61.9229 15.5883 61.7077 16.2883 61.7077 17.1549C61.7077 18.0883 61.9229 18.7883 62.3534 19.2549C62.7838 19.7883 63.368 20.055 64.1059 20.055C64.5364 20.055 64.9361 19.9883 65.305 19.855C65.674 19.7216 66.0737 19.5216 66.5041 19.2549ZM67.242 14.4549V12.7549H74.6211V14.4549H71.9462V21.555H69.9169V14.4549H67.242Z" fill="#E52926"/>
</svg>
