<svg width="277" height="83" viewBox="0 0 277 83" fill="none" xmlns="http://www.w3.org/2000/svg">
<path d="M26.9294 35.5534C26.9294 37.6016 27.6121 39.3084 28.9776 40.6739C30.3431 38.9671 32.3913 38.2843 34.7809 38.2843C39.9014 37.943 43.9978 42.0394 43.9978 47.1599L44.3392 67.642C44.6805 72.7625 40.5841 76.8589 35.4636 76.8589C30.3431 76.8589 26.2467 72.7625 26.2467 67.9834L25.9053 48.5254C23.8571 47.1599 22.1502 45.4531 20.7848 43.4049C20.5572 44.7703 20.4434 46.1358 20.4434 47.5013L20.7848 67.9834C20.7848 75.8348 27.2708 82.3208 35.4636 82.3208C43.6564 82.3208 50.1424 75.4934 49.801 67.642L49.4597 47.1599C49.4597 38.9671 42.9737 32.4811 34.7809 32.8225C31.7086 32.8225 28.9776 33.5052 26.9294 35.212V35.5534Z" fill="white"/>
<path d="M34.7808 49.889C37.8531 49.889 40.584 49.2062 42.6322 47.4994V47.158C42.6322 45.4512 41.9495 43.403 40.9254 42.3789C39.2186 43.7443 37.1704 44.4271 34.7808 44.4271C29.6603 44.7684 25.5638 40.672 25.5638 35.5515L25.2225 15.0694C25.2225 9.94891 29.3189 5.85251 34.4394 5.85251C39.2186 5.85251 43.6563 9.94892 43.6563 14.7281L43.9977 34.186C46.0459 35.5515 47.639 37.2583 48.7769 39.3066C49.232 37.9411 49.4596 36.5756 49.4596 35.2101L49.1182 14.7281C48.7769 6.87661 42.2909 0.390625 34.098 0.390625C26.2466 0.390625 19.7606 7.21797 19.7606 15.0694L20.102 35.5515C20.102 43.7443 26.9293 50.2304 34.7808 49.889Z" fill="white"/>
<path d="M7.81283 53.9832C11.9092 53.9832 15.3229 57.3968 15.3229 61.4932C15.3229 65.5897 11.9092 69.0033 7.81283 69.0033C3.71642 69.0033 0.302734 65.5897 0.302734 61.4932C0.302734 57.3968 3.71642 53.9832 7.81283 53.9832Z" fill="white"/>
<path d="M7.81283 17.4576C11.9092 17.4576 15.3229 20.8713 15.3229 25.3091C15.3229 29.4055 11.9092 32.8192 7.81283 32.8192C3.71642 32.8192 0.302734 29.4055 0.302734 25.3091C0.302734 20.8713 3.71642 17.4576 7.81283 17.4576Z" fill="white"/>
<path d="M85.6445 30.7723V36.917C84.279 37.5997 82.7997 38.1687 81.2067 38.6238C79.6136 39.079 78.0206 39.3065 76.4275 39.3065C71.4208 39.3065 67.4382 37.9411 64.4797 35.2101C61.7487 32.2516 60.3832 28.3828 60.3832 23.6036C60.3832 18.8245 61.7487 15.0694 64.4797 12.3385C67.4382 9.60755 71.4208 8.24207 76.4275 8.24207C78.0206 8.24207 79.6136 8.46966 81.2067 8.92482C82.7997 9.1524 84.279 9.60753 85.6445 10.2903V16.7763C84.279 15.6384 82.9135 14.8419 81.5481 14.3867C80.1826 13.9315 78.7033 13.7039 77.1103 13.7039C74.3793 13.7039 72.2173 14.6143 70.6243 16.4349C69.0312 18.2555 68.2347 20.6451 68.2347 23.6036C68.2347 26.7897 69.0312 29.2931 70.6243 31.1137C72.2173 32.7068 74.3793 33.5033 77.1103 33.5033C78.7033 33.5033 80.1826 33.2757 81.5481 32.8206C82.9135 32.3654 84.279 31.6827 85.6445 30.7723ZM111.93 38.6238L110.223 33.1619H98.2751L96.2269 38.6238H88.3754L99.6405 8.92482H108.857L119.781 38.6238H111.93ZM104.078 15.7522L99.9819 27.7001H108.175L104.078 15.7522ZM123.536 38.6238V8.58343H133.436L140.263 24.6277L147.091 8.58343H156.99V38.6238H149.48V16.7763L142.653 32.8206H137.874L131.046 16.7763V38.6238H123.536ZM164.159 38.6238V8.58343H177.131C180.772 8.58343 183.617 9.49375 185.665 11.3144C187.713 12.9074 188.738 15.297 188.738 18.4831C188.738 21.6692 187.713 24.0588 185.665 25.6518C183.617 27.2449 180.772 28.0414 177.131 28.0414H172.011V38.6238H164.159ZM176.107 14.3867H171.669V22.5795H176.107C177.472 22.5795 178.61 22.2382 179.521 21.5554C180.203 20.8727 180.545 19.8486 180.545 18.4831C180.545 17.1176 180.203 16.0935 179.521 15.4108C178.61 14.7281 177.472 14.3867 176.107 14.3867ZM194.199 26.6759V8.58343H201.71V26.6759C201.71 29.1793 202.165 30.8861 203.075 31.7965C203.758 32.9344 205.009 33.5033 206.83 33.5033C208.651 33.5033 210.016 32.9344 210.927 31.7965C211.609 30.8861 211.951 29.1793 211.951 26.6759V8.58343H219.802V26.6759C219.802 30.7724 218.778 33.8447 216.73 35.8929C214.454 38.1687 211.154 39.3065 206.83 39.3065C202.506 39.3065 199.32 38.1687 197.272 35.8929C195.224 33.8447 194.199 30.7724 194.199 26.6759ZM248.136 9.60754V16.0935C246.543 15.1832 244.95 14.6143 243.356 14.3867C241.763 13.9315 240.284 13.7039 238.919 13.7039C237.098 13.7039 235.733 13.9315 234.822 14.3867C233.912 15.0694 233.457 15.866 233.457 16.7763C233.457 17.6866 233.798 18.3693 234.481 18.8245C234.936 19.2796 235.96 19.621 237.553 19.8486L240.967 20.5313C244.153 21.214 246.429 22.2382 247.794 23.6036C249.387 24.9691 250.184 26.9035 250.184 29.4069C250.184 32.593 249.16 34.9826 247.112 36.5756C245.063 38.3962 242.105 39.3065 238.236 39.3065C236.415 39.3065 234.481 39.079 232.433 38.6238C230.612 38.1687 228.678 37.5997 226.629 36.917V30.431C228.678 31.5689 230.612 32.3654 232.433 32.8206C234.026 33.2757 235.733 33.5033 237.553 33.5033C239.146 33.5033 240.398 33.2757 241.308 32.8206C242.219 32.1378 242.674 31.3413 242.674 30.431C242.674 29.5207 242.332 28.7242 241.65 28.0414C241.194 27.5863 240.057 27.1311 238.236 26.6759L235.164 25.9932C232.205 25.5381 230.043 24.514 228.678 22.9209C227.312 21.5554 226.629 19.7348 226.629 17.459C226.629 14.5005 227.54 12.2247 229.36 10.6317C231.181 9.03861 233.912 8.24207 237.553 8.24207C239.374 8.24207 241.081 8.35585 242.674 8.58343C244.494 8.81101 246.315 9.15239 248.136 9.60754ZM85.3031 64.9091V71.0538C83.71 71.7365 82.2308 72.3055 80.8653 72.7606C79.2723 73.2158 77.6792 73.4433 76.0862 73.4433C71.0794 73.4433 67.0968 71.9641 64.1383 69.0056C61.1798 66.2746 59.7005 62.5196 59.7005 57.7404C59.7005 52.9613 61.1798 49.2062 64.1383 46.4753C67.0968 43.7444 71.0794 42.3789 76.0862 42.3789C77.6792 42.3789 79.2723 42.4926 80.8653 42.7202C82.2308 43.1754 83.71 43.7443 85.3031 44.4271V50.5717C83.71 49.6614 82.2308 48.9787 80.8653 48.5235C79.4998 48.0683 78.0206 47.8407 76.4275 47.8407C73.6966 47.8407 71.5346 48.7511 69.9415 50.5717C68.5761 52.3923 67.8933 54.7819 67.8933 57.7404C67.8933 60.9266 68.5761 63.3161 69.9415 64.9091C71.5346 66.7298 73.6966 67.6401 76.4275 67.6401C78.0206 67.6401 79.4998 67.4125 80.8653 66.9574C82.2308 66.5022 83.71 65.8195 85.3031 64.9091ZM105.102 47.8407C102.827 47.8407 101.006 48.7511 99.6405 50.5717C98.5026 52.1648 97.9337 54.5543 97.9337 57.7404C97.9337 60.9266 98.5026 63.4299 99.6405 65.2505C101.006 66.8436 102.827 67.6401 105.102 67.6401C107.606 67.6401 109.426 66.8436 110.564 65.2505C111.93 63.4299 112.613 60.9266 112.613 57.7404C112.613 54.5543 111.93 52.1648 110.564 50.5717C109.426 48.7511 107.606 47.8407 105.102 47.8407ZM105.102 42.3789C109.882 42.3789 113.637 43.7444 116.368 46.4753C119.099 49.2062 120.464 52.9613 120.464 57.7404C120.464 62.5196 119.099 66.2746 116.368 69.0056C113.637 71.9641 109.882 73.4433 105.102 73.4433C100.323 73.4433 96.5682 71.9641 93.8373 69.0056C91.1064 66.2746 89.7409 62.5196 89.7409 57.7404C89.7409 52.9613 91.1064 49.2062 93.8373 46.4753C96.5682 43.7444 100.323 42.3789 105.102 42.3789ZM126.267 72.7606V42.7202H135.143L145.725 63.2023V42.7202H153.235V72.7606H144.701L133.777 52.2785V72.7606H126.267ZM160.404 72.7606V42.7202H168.938L179.862 63.2023V42.7202H187.372V72.7606H178.497L167.914 52.2785V72.7606H160.404ZM194.541 72.7606V42.7202H215.364V48.5235H202.392V54.3267H214.682V60.13H202.392V66.9574H215.706V72.7606H194.541ZM246.429 64.9091V71.0538C244.836 71.7365 243.356 72.3055 241.991 72.7606C240.398 73.2158 238.691 73.4433 236.87 73.4433C232.091 73.4433 228.222 71.9641 225.264 69.0056C222.305 66.2746 220.826 62.5196 220.826 57.7404C220.826 52.9613 222.305 49.2062 225.264 46.4753C228.222 43.7444 232.091 42.3789 236.87 42.3789C238.691 42.3789 240.398 42.4926 241.991 42.7202C243.356 43.1754 244.836 43.7443 246.429 44.4271V50.5717C244.836 49.6614 243.356 48.9787 241.991 48.5235C240.626 48.0683 239.146 47.8407 237.553 47.8407C234.822 47.8407 232.66 48.7511 231.067 50.5717C229.474 52.3923 228.678 54.7819 228.678 57.7404C228.678 60.9266 229.474 63.3161 231.067 64.9091C232.66 66.7298 234.822 67.6401 237.553 67.6401C239.146 67.6401 240.626 67.4125 241.991 66.9574C243.356 66.5022 244.836 65.8195 246.429 64.9091ZM249.16 48.5235V42.7202H276.469V48.5235H266.569V72.7606H259.059V48.5235H249.16Z" fill="white"/>
</svg>
